<svg width="94" height="112" viewBox="0 0 94 112" fill="none" xmlns="http://www.w3.org/2000/svg">
<path d="M4.05907 99.1563C-0.731906 109.552 3.65982 108.752 8.85004 108.752C11.7777 107.952 19.789 106.833 28.4127 108.752C39.1924 111.151 53.1661 109.951 67.539 106.353C81.9119 102.755 79.1172 103.154 86.3036 104.754C93.4901 106.353 92.2923 101.555 91.0946 99.1563C89.8968 96.7573 86.7029 91.9595 86.3036 81.1644C85.9044 70.3692 83.9081 56.3755 79.1172 41.5822C74.3262 26.7888 57.5578 28.7879 54.3638 27.1887C51.1698 25.5894 51.1698 21.5912 54.3638 21.1914C57.5578 20.7915 61.9495 19.9919 64.7442 16.7933C66.98 14.2345 68.6036 8.26385 69.136 5.59838C66.3412 4.39892 58.1966 2 47.9759 2C37.7551 2 29.8766 4.39892 27.215 5.59838C27.3481 6.53129 27.7739 8.79694 28.4127 10.3962C29.2112 12.3953 29.6105 17.1932 35.9984 19.1923C42.3864 21.1914 43.5841 20.3917 43.9834 22.7906C44.3826 25.1896 43.5841 27.1887 34.4014 29.5876C25.2187 31.9865 15.2376 33.9856 13.2413 54.3764C11.2451 74.7672 8.85004 88.7609 4.05907 99.1563Z" stroke="#253C64" stroke-width="3" stroke-linecap="round" stroke-linejoin="round"/>
<path d="M41.1894 71.0576L35.2014 71.0576C32.0064 71.0576 31.2079 69.0585 32.8049 66.6596C34.4019 64.2606 46.9427 48.2614 49.1737 45.4691C52.3684 41.4708 54.3942 44.7083 53.9654 47.0684C53.1662 51.4664 51.7026 58.9297 50.771 63.461C51.4365 63.7275 54.2049 63.9408 58.3571 64.2607C62.5093 64.5806 62.7485 66.6596 60.7523 69.0585C55.429 75.4556 45.4299 86.002 43.9839 87.4503C41.1894 90.2489 38.7936 89.0495 39.5921 85.4511L41.1894 71.0576Z" stroke="#253C64" stroke-width="3" stroke-linecap="round" stroke-linejoin="round"/>
</svg>
