<svg width="24" height="24" viewBox="0 0 24 24" fill="none" xmlns="http://www.w3.org/2000/svg">
<path d="M3 11C3 7.22876 3 5.34315 4.17157 4.17157C5.34315 3 7.22876 3 11 3H13C16.7712 3 18.6569 3 19.8284 4.17157C21 5.34315 21 7.22876 21 11V13C21 16.7712 21 18.6569 19.8284 19.8284C18.6569 21 16.7712 21 13 21H11C7.22876 21 5.34315 21 4.17157 19.8284C3 18.6569 3 16.7712 3 13V11Z" stroke="#253C64"/>
<path fill-rule="evenodd" clip-rule="evenodd" d="M18.9976 14.2914L18.6544 13.9481L18.6385 13.9323C18.238 13.5317 17.9149 13.2086 17.6314 12.9697C17.3394 12.7236 17.055 12.5363 16.7221 12.4358C16.2512 12.2938 15.7488 12.2938 15.2779 12.4358C14.945 12.5363 14.6606 12.7236 14.3686 12.9697C14.0851 13.2087 13.762 13.5317 13.3615 13.9323L13.3456 13.9481C13.0459 14.2479 12.8458 14.4472 12.6832 14.5817C12.5218 14.7151 12.452 14.7368 12.4237 14.7418C12.3029 14.763 12.1785 14.739 12.0742 14.6745C12.0498 14.6594 11.993 14.6133 11.8928 14.4295C11.7917 14.2442 11.68 13.9848 11.513 13.5952L11.4596 13.4706L11.4475 13.4424L11.4475 13.4424C11.0829 12.5917 10.7931 11.9154 10.5107 11.4135C10.2237 10.9036 9.90522 10.4993 9.44575 10.269C9.03426 10.0627 8.57382 9.97406 8.11515 10.0128C7.603 10.056 7.15716 10.313 6.70134 10.6799C6.25273 11.041 5.73245 11.5613 5.07799 12.2158L5.07798 12.2158L5.05634 12.2374L5 12.2937V13.0009C5 13.2472 5.00007 13.4825 5.00044 13.7075L5.76344 12.9445C6.44443 12.2635 6.92686 11.7821 7.32835 11.4589C7.72756 11.1376 7.98255 11.0275 8.19924 11.0092C8.47444 10.986 8.75071 11.0392 8.9976 11.163C9.192 11.2604 9.38786 11.4574 9.63918 11.904C9.89194 12.3531 10.1611 12.9793 10.5404 13.8645L10.5938 13.9891L10.6034 14.0115L10.6034 14.0115C10.7583 14.3729 10.8884 14.6764 11.0149 14.9083C11.1448 15.1465 11.3038 15.3737 11.5479 15.5248C11.8608 15.7185 12.2341 15.7904 12.5966 15.7267C12.8794 15.6771 13.1114 15.5252 13.3204 15.3523C13.524 15.184 13.7575 14.9504 14.0355 14.6724L14.0527 14.6552C14.4728 14.2351 14.766 13.9426 15.013 13.7344C15.2553 13.5302 15.4185 13.4379 15.5667 13.3932C15.8493 13.308 16.1507 13.308 16.4333 13.3932C16.5815 13.4379 16.7447 13.5302 16.987 13.7344C17.234 13.9426 17.5272 14.2351 17.9473 14.6552L18.9755 15.6835C18.9887 15.2731 18.9948 14.8129 18.9976 14.2914Z" fill="#253C64"/>
<circle cx="16.5" cy="7.5" r="1.5" fill="#253C64"/>
</svg>
