<svg width="124" height="124" viewBox="0 0 124 124" fill="none" xmlns="http://www.w3.org/2000/svg">
<path d="M38.923 38.2969C33.9637 43.1586 29.294 47.7252 25.6353 51.2969C24.8018 52.4635 24.1348 55.2969 28.1348 57.2969C33.1348 59.7969 43.6348 64.7969 34.6348 73.7969C25.6348 82.7969 21.1348 71.2969 19.1348 67.2969C17.1348 63.2969 14.6348 62.2969 11.6348 64.7969C8.63477 67.2969 8.13525 68.2969 5.13525 71.2969C2.13525 74.2969 0.635255 78.7969 3.63525 81.7969C6.63525 84.7969 36.1353 116.297 40.1353 119.797C44.1353 123.297 47.1353 123.297 50.6353 119.797C54.1353 116.297 52.1353 117.797 56.1353 113.797C60.1353 109.797 61.1353 105.797 56.1353 105.297C51.1353 104.797 40.6353 96.7969 50.6353 88.7969C59.3853 81.7969 64.6661 87.7433 67.1353 96.7969C68.6353 102.297 71.6353 98.2969 73.6353 96.7969C74.3292 96.2764 79.2967 91.3018 85.7393 84.7969M38.923 38.2969C52.9401 24.5556 69.2715 8.45604 71.6353 5.79688C75.6353 1.29688 80.6353 0.796875 84.6353 4.29688C88.6353 7.79688 91.6353 11.7969 94.1353 14.2969C96.6353 16.7969 97.6353 18.7969 91.1353 19.7969C84.6353 20.7969 81.1353 29.2969 87.6353 35.7969C94.1353 42.2969 101.635 38.7969 103.135 31.7969C104.635 24.7969 108.135 27.7969 110.135 29.7969C112.135 31.7969 117.135 35.7969 119.135 38.2969C121.135 40.7969 125.135 45.7969 119.135 51.2969C115.217 54.8886 97.8653 72.5535 85.7393 84.7969M38.923 38.2969C43.6601 42.6302 53.4344 51.8969 54.6348 54.2969C56.1353 57.2969 60.1348 55.7969 61.6348 49.7969C63.1348 43.7969 72.1348 41.2969 77.1348 47.7969C80.9809 52.7969 82.1348 60.0826 73.6353 61.2969C70.1348 61.797 67.1348 65.7969 70.1348 69.2969C72.4632 72.0134 81.0379 80.2969 85.7393 84.7969M38.923 14.2969V25.2969M22.6348 21.2969L31.1348 29.7969M15.1348 38.2969H25.6353M99.6348 84.7969H108.635M94.1353 93.2969L103.135 101.297M84.6353 99.2969V108.797" stroke="#253C64" stroke-width="3" stroke-linecap="round" stroke-linejoin="round"/>
</svg>
