<svg width="86" height="85" viewBox="0 0 86 85" fill="none" xmlns="http://www.w3.org/2000/svg">
<path d="M59.5826 21.1538C60.7941 24.3816 61.4567 27.8779 61.4567 31.5288C61.4567 47.8372 48.2362 61.0577 31.9279 61.0577C28.2769 61.0577 24.7807 60.3951 21.5529 59.1836M11.976 53.2977C6.08948 47.8997 2.39904 40.1452 2.39904 31.5288C2.39904 15.2205 15.6196 2 31.9279 2C40.7374 2 48.6458 5.8577 54.0561 11.976M2 78.2163L78.6154 2" stroke="#253C64" stroke-width="3" stroke-linecap="round" stroke-linejoin="round"/>
<path d="M74.2263 82.6058C72.311 80.0519 56.6686 62.9199 49.0869 54.6731L56.2696 49.4856C63.0533 55.7372 77.4186 69.0385 80.611 72.2308C84.6013 76.2212 86.5965 79.4135 83.8033 82.6058C81.01 85.7981 76.6206 85.7981 74.2263 82.6058Z" fill="#253C64"/>
</svg>
