<svg width="105" height="76" viewBox="0 0 105 76" fill="none" xmlns="http://www.w3.org/2000/svg">
<path d="M9.01389 44.9075C5.09516 44.9075 2.84736 44.9075 2 44.9075V18.7899C3.87037 18.7899 10.6037 18.7899 22.5741 18.7899C34.5444 18.7899 55.929 7.59663 65.125 2V22.0546M9.01389 44.9075C9.01389 51.4369 9.01389 65.4284 9.01389 69.1595C9.01389 73.8234 8.5463 73.8234 13.2222 73.8234C17.8981 73.8234 19.7685 75.6889 19.3009 67.294C18.9269 60.578 19.1451 49.5713 19.3009 44.9075M9.01389 44.9075C11.6558 44.9075 15.0572 44.9075 19.3009 44.9075M19.3009 44.9075C20.341 44.9075 21.4316 44.9075 22.5741 44.9075C35.2926 44.9075 56.2407 55.4789 65.125 60.7646V40.2436M65.125 22.0546C68.2423 22.3655 74.5704 23.547 74.9444 25.7857C75.412 28.584 74.9444 34.1806 74.9444 35.5798C74.9444 36.6991 68.3981 39.1554 65.125 40.2436M65.125 22.0546V40.2436M87.1019 15.9916L103 7.59663M87.1019 31.3823H103M87.1019 47.7058L101.597 55.168" stroke="#253C64" stroke-width="3" stroke-linecap="round" stroke-linejoin="round"/>
</svg>
