<svg width="76" height="88" viewBox="0 0 76 88" fill="none" xmlns="http://www.w3.org/2000/svg">
<path d="M25.6814 38.5077C25.6814 32.6923 25.6814 19.64 25.6814 13.9538C25.6814 6.84615 31.4955 2 39.2476 2C46.9997 2 53.1367 8.13846 53.1367 15.8923C53.1367 22.0954 53.1367 33.5538 53.1367 38.5077M12.4388 23.6462C28.8043 23.6462 61.9875 23.6462 63.7963 23.6462C66.0574 23.6462 68.3184 23.9692 68.6414 28.1692C68.9644 32.3692 72.5174 65.6462 73.8094 75.3385C75.1014 85.0308 69.6104 86 63.7963 86C57.9823 86 21.1599 86 10.8238 86C0.487674 86 1.77969 80.8308 2.42569 75.3385C3.0717 69.8462 6.30124 32.6923 7.27025 28.1692C8.04546 24.5508 11.039 23.6462 12.4388 23.6462Z" stroke="#253C64" stroke-width="3" stroke-linecap="round" stroke-linejoin="round"/>
</svg>
