<svg width="24" height="24" viewBox="0 0 24 24" fill="none" xmlns="http://www.w3.org/2000/svg">
<path fill-rule="evenodd" clip-rule="evenodd" d="M14.8489 5.65836C14.3921 5.65817 13.9409 5.75941 13.5279 5.95477C13.115 6.15014 12.7506 6.43475 12.4609 6.78807C12.1713 7.1414 11.9638 7.55461 11.8533 7.99788C11.7428 8.44116 11.7321 8.90344 11.8219 9.35136C11.8529 9.50656 11.8465 9.66688 11.8035 9.81915C11.7604 9.97142 11.6817 10.1113 11.5741 10.2273C11.4664 10.3432 11.3327 10.432 11.1841 10.4863C11.0354 10.5405 10.876 10.5587 10.7189 10.5394C8.56867 10.2752 6.54166 9.39131 4.88494 7.99536C4.91594 8.59736 5.12494 9.23736 5.57794 9.90736L6.25694 10.9114L5.14194 11.3864L4.92694 11.4784C5.08694 11.6614 5.27894 11.8484 5.49394 12.0334C5.78135 12.2794 6.08541 12.5052 6.40394 12.7094L6.41494 12.7164H6.41594L7.96394 13.6554L6.34394 14.4654C6.26394 14.5054 6.18394 14.5414 6.10394 14.5734C6.45228 14.8628 6.83602 15.1068 7.24594 15.2994L8.63594 15.9564L7.47194 16.9604C6.83694 17.5084 6.19794 17.9174 5.36894 18.1334C6.64037 18.8106 8.05938 19.1634 9.49994 19.1604C14.3059 19.1604 18.1759 15.3254 18.1759 10.6264V10.1064L18.6009 9.80736C19.2649 9.34136 19.7339 8.71136 20.0699 7.99036H17.9099L17.6379 7.42036C17.3875 6.89303 16.9926 6.44756 16.4991 6.13567C16.0056 5.82378 15.4337 5.65827 14.8499 5.65836H14.8489ZM3.56894 12.9584C3.47457 13.0664 3.40457 13.1935 3.36367 13.3311C3.32278 13.4686 3.31196 13.6133 3.33194 13.7554C3.44494 14.5564 3.92394 15.2464 4.45394 15.7734C4.59794 15.9164 4.75194 16.0534 4.91394 16.1844L4.83894 16.2044C4.35794 16.3244 3.70894 16.3494 2.62794 16.2444C2.4238 16.2243 2.21843 16.2676 2.03969 16.3682C1.86095 16.4688 1.71748 16.622 1.62873 16.8069C1.53997 16.9918 1.51024 17.1996 1.54355 17.402C1.57686 17.6044 1.6716 17.7916 1.81494 17.9384C2.81571 18.9613 4.01123 19.7734 5.33096 20.3268C6.65069 20.8801 8.06789 21.1636 9.49894 21.1604C15.2119 21.1604 19.8979 16.7244 20.1629 11.1264C21.4529 10.0434 22.0979 8.57636 22.4459 7.24336C22.4846 7.09541 22.4889 6.94056 22.4583 6.79071C22.4278 6.64086 22.3633 6.50002 22.2698 6.379C22.1763 6.25798 22.0563 6.16002 21.9191 6.09264C21.7818 6.02527 21.6309 5.99028 21.4779 5.99036H19.1249C18.5494 5.09668 17.7083 4.4058 16.7198 4.01479C15.7314 3.62378 14.6453 3.55231 13.6141 3.8104C12.5829 4.0685 11.6585 4.64319 10.9708 5.45373C10.2831 6.26428 9.86664 7.26992 9.77994 8.32936C7.93659 7.84951 6.28727 6.81016 5.05894 5.35436C4.95016 5.22574 4.81065 5.12669 4.65336 5.06639C4.49607 5.00609 4.32609 4.9865 4.15921 5.00945C3.99233 5.03239 3.83395 5.09712 3.69876 5.19762C3.56358 5.29813 3.45598 5.43116 3.38594 5.58436C2.77994 6.90636 2.66394 8.43036 3.33994 9.98036L3.10594 10.0804C2.88201 10.1758 2.70058 10.3496 2.59564 10.5692C2.49071 10.7888 2.46948 11.0392 2.53594 11.2734C2.72194 11.9254 3.13994 12.5014 3.56794 12.9584H3.56894Z" fill="#253C64"/>
</svg>
