<svg width="200" height="208" viewBox="0 0 200 208" fill="none" xmlns="http://www.w3.org/2000/svg">
<path d="M67.2912 4L101.385 36.4449L37.8153 102.989L40.0417 105.113L105.739 36.3412L75.1996 7.27899L189.781 10.2146L192.715 118.687L160.436 86.4337L134.729 115.331L137.029 117.374L160.567 90.9146L196 126.319L192.778 7.21507L67.2912 4Z" fill="#FFFF01"/>
<path fill-rule="evenodd" clip-rule="evenodd" d="M123.568 144.031C123.568 151.674 117.367 157.87 109.718 157.87C102.069 157.87 95.8678 151.674 95.8678 144.031C95.8678 136.387 102.069 130.191 109.718 130.191C117.367 130.191 123.568 136.387 123.568 144.031ZM120.49 144.031C120.49 149.975 115.667 154.794 109.718 154.794C103.769 154.794 98.9456 149.975 98.9456 144.031C98.9456 138.086 103.769 133.267 109.718 133.267C115.667 133.267 120.49 138.086 120.49 144.031Z" fill="#FFFF01"/>
<path fill-rule="evenodd" clip-rule="evenodd" d="M158.963 204C166.612 204 172.813 197.804 172.813 190.161C172.813 182.518 166.612 176.322 158.963 176.322C151.313 176.322 145.113 182.518 145.113 190.161C145.113 197.804 151.313 204 158.963 204ZM158.963 200.925C164.912 200.925 169.735 196.106 169.735 190.161C169.735 184.216 164.912 179.397 158.963 179.397C153.013 179.397 148.19 184.216 148.19 190.161C148.19 196.106 153.013 200.925 158.963 200.925Z" fill="#FFFF01"/>
<path d="M103.125 200.461L164.681 137.416L162.478 135.268L100.922 198.313L103.125 200.461Z" fill="#FFFF01"/>
<path d="M61.5458 46.7216L6.14547 100.54L4 98.3354L59.4004 44.5166L61.5458 46.7216Z" fill="#FFFF01"/>
<path d="M23.0888 120.515L30.7833 112.827L28.607 110.652L20.9125 118.34L23.0888 120.515Z" fill="#FFFF01"/>
<path d="M67.2912 4L101.385 36.4449L37.8153 102.989L40.0417 105.113L105.739 36.3412L75.1996 7.27899L189.781 10.2146L192.715 118.687L160.436 86.4337L134.729 115.331L137.029 117.374L160.567 90.9146L196 126.319L192.778 7.21507L67.2912 4Z" stroke="#FFFF01" stroke-width="8" stroke-linejoin="round"/>
<path fill-rule="evenodd" clip-rule="evenodd" d="M123.568 144.031C123.568 151.674 117.367 157.87 109.718 157.87C102.069 157.87 95.8678 151.674 95.8678 144.031C95.8678 136.387 102.069 130.191 109.718 130.191C117.367 130.191 123.568 136.387 123.568 144.031ZM120.49 144.031C120.49 149.975 115.667 154.794 109.718 154.794C103.769 154.794 98.9456 149.975 98.9456 144.031C98.9456 138.086 103.769 133.267 109.718 133.267C115.667 133.267 120.49 138.086 120.49 144.031Z" stroke="#FFFF01" stroke-width="8" stroke-linejoin="round"/>
<path fill-rule="evenodd" clip-rule="evenodd" d="M158.963 204C166.612 204 172.813 197.804 172.813 190.161C172.813 182.518 166.612 176.322 158.963 176.322C151.313 176.322 145.113 182.518 145.113 190.161C145.113 197.804 151.313 204 158.963 204ZM158.963 200.925C164.912 200.925 169.735 196.106 169.735 190.161C169.735 184.216 164.912 179.397 158.963 179.397C153.013 179.397 148.19 184.216 148.19 190.161C148.19 196.106 153.013 200.925 158.963 200.925Z" stroke="#FFFF01" stroke-width="8" stroke-linejoin="round"/>
<path d="M103.125 200.461L164.681 137.416L162.478 135.268L100.922 198.313L103.125 200.461Z" stroke="#FFFF01" stroke-width="8" stroke-linejoin="round"/>
<path d="M61.5458 46.7216L6.14547 100.54L4 98.3354L59.4004 44.5166L61.5458 46.7216Z" stroke="#FFFF01" stroke-width="8" stroke-linejoin="round"/>
<path d="M23.0888 120.515L30.7833 112.827L28.607 110.652L20.9125 118.34L23.0888 120.515Z" stroke="#FFFF01" stroke-width="8" stroke-linejoin="round"/>
</svg>
