<svg width="55" height="55" viewBox="0 0 55 55" fill="none" xmlns="http://www.w3.org/2000/svg">
<path d="M40.1217 13.2863C39.3435 14.1711 28.0301 25.6214 21.9842 31.5155C19.4191 29.0242 14.1791 23.8957 13.7394 23.3124C13.1898 22.5832 11.9073 22.4009 10.9913 23.3124C10.0752 24.2238 8.42662 25.4999 7.69378 26.4114C6.96094 27.3228 6.59452 28.2343 7.69378 29.6926C8.79304 31.151 19.7856 41.724 20.7017 42.4531C21.6177 43.1823 22.9002 43.1823 23.8163 42.4531C24.7323 41.724 45.2519 20.7603 46.9007 19.3019C48.5496 17.8436 48 16.9321 47.4504 16.203C46.9007 15.4738 44.3068 13.1405 43.603 12.5571C42.5034 11.6457 41.4041 11.828 40.1217 13.2863Z" fill="white"/>
</svg>
