<svg width="288" height="107" viewBox="0 0 288 107" fill="none" xmlns="http://www.w3.org/2000/svg">
<path d="M81.9074 0H24.1918C10.8311 0 0 10.8311 0 24.1918V81.9074C0 95.2682 10.8311 106.099 24.1918 106.099H81.9074C95.2682 106.099 106.099 95.2682 106.099 81.9074V24.1918C106.099 10.8311 95.2682 0 81.9074 0Z" fill="#FFFF01"/>
<path d="M154.563 86.4462C154.083 87.1652 153.497 87.8443 152.805 88.4834C152.139 89.1226 151.354 89.6818 150.448 90.1611C149.569 90.6405 148.584 91.0133 147.492 91.2796C146.427 91.5726 145.255 91.719 143.977 91.719C141.846 91.719 139.876 91.3462 138.065 90.6005C136.254 89.8549 134.696 88.8296 133.391 87.5247C132.086 86.1932 131.061 84.622 130.315 82.8111C129.596 81.0003 129.237 79.0163 129.237 76.8592C129.237 74.7021 129.61 72.7182 130.355 70.9073C131.101 69.0964 132.126 67.5385 133.431 66.2337C134.763 64.9021 136.321 63.8635 138.105 63.1179C139.916 62.3722 141.873 61.9994 143.977 61.9994C145.016 61.9994 146.027 62.1059 147.013 62.319C148.025 62.532 148.97 62.8383 149.849 63.2377C150.728 63.6105 151.527 64.0766 152.246 64.6358C152.965 65.1684 153.564 65.7809 154.043 66.4733L151.647 68.2309C151.354 67.7782 150.954 67.3255 150.448 66.8728C149.969 66.4201 149.396 66.0206 148.73 65.6744C148.065 65.3282 147.332 65.0486 146.533 64.8356C145.761 64.6225 144.922 64.516 144.017 64.516C142.179 64.516 140.528 64.8489 139.064 65.5146C137.626 66.1804 136.401 67.0858 135.389 68.2309C134.377 69.3494 133.604 70.6543 133.072 72.1456C132.539 73.6369 132.273 75.2081 132.273 76.8592C132.273 78.5103 132.539 80.0815 133.072 81.5728C133.631 83.0641 134.417 84.3823 135.429 85.5274C136.441 86.6459 137.666 87.538 139.104 88.2038C140.568 88.8696 142.206 89.2024 144.017 89.2024C145.641 89.2024 147.186 88.8696 148.651 88.2038C150.115 87.538 151.34 86.4728 152.326 85.0081L154.563 86.4462ZM186.999 76.8592C186.999 79.0163 186.626 81.0003 185.88 82.8111C185.135 84.622 184.096 86.1932 182.765 87.5247C181.46 88.8296 179.902 89.8549 178.091 90.6005C176.307 91.3462 174.363 91.719 172.259 91.719C170.155 91.719 168.198 91.3462 166.387 90.6005C164.603 89.8549 163.045 88.8296 161.713 87.5247C160.408 86.1932 159.383 84.622 158.637 82.8111C157.892 81.0003 157.519 79.0163 157.519 76.8592C157.519 74.7021 157.892 72.7182 158.637 70.9073C159.383 69.0964 160.408 67.5385 161.713 66.2337C163.045 64.9021 164.603 63.8635 166.387 63.1179C168.198 62.3722 170.155 61.9994 172.259 61.9994C174.363 61.9994 176.307 62.3722 178.091 63.1179C179.902 63.8635 181.46 64.9021 182.765 66.2337C184.096 67.5385 185.135 69.0964 185.88 70.9073C186.626 72.7182 186.999 74.7021 186.999 76.8592ZM183.963 76.8592C183.963 75.2081 183.697 73.6369 183.164 72.1456C182.631 70.6543 181.859 69.3494 180.847 68.2309C179.835 67.0858 178.597 66.1804 177.132 65.5146C175.694 64.8489 174.07 64.516 172.259 64.516C170.448 64.516 168.81 64.8489 167.345 65.5146C165.907 66.1804 164.682 67.0858 163.67 68.2309C162.659 69.3494 161.886 70.6543 161.354 72.1456C160.821 73.6369 160.555 75.2081 160.555 76.8592C160.555 78.5103 160.821 80.0815 161.354 81.5728C161.886 83.0641 162.659 84.369 163.67 85.4875C164.682 86.606 165.907 87.4981 167.345 88.1639C168.81 88.8296 170.448 89.1625 172.259 89.1625C174.07 89.1625 175.694 88.8296 177.132 88.1639C178.597 87.4981 179.835 86.606 180.847 85.4875C181.859 84.369 182.631 83.0641 183.164 81.5728C183.697 80.0815 183.963 78.5103 183.963 76.8592ZM195.851 88.4435H209.033V91H192.975V62.7184H195.851V88.4435ZM216.214 88.4435H229.396V91H213.338V62.7184H216.214V88.4435ZM233.501 91H230.346L242.569 62.7184H245.365L257.509 91H254.313L251.197 83.5701H236.577L233.501 91ZM237.656 80.9337H250.119L243.887 65.9141L237.656 80.9337ZM264.547 91H261.671V62.7184H269.979C271.364 62.7184 272.643 62.8516 273.814 63.1179C275.013 63.3842 276.038 63.8236 276.89 64.4361C277.769 65.022 278.448 65.7942 278.927 66.7529C279.407 67.7116 279.646 68.8834 279.646 70.2682C279.646 71.3068 279.46 72.2521 279.087 73.1043C278.714 73.9565 278.208 74.7021 277.569 75.3413C276.93 75.9538 276.171 76.4464 275.292 76.8193C274.413 77.1921 273.455 77.4318 272.416 77.5383L280.685 91H277.17L269.34 77.778H264.547V91ZM264.547 75.3013H269.54C271.857 75.3013 273.641 74.8886 274.893 74.063C276.144 73.2108 276.77 71.9459 276.77 70.2682C276.77 69.3361 276.597 68.5505 276.251 67.9114C275.905 67.2722 275.425 66.7529 274.813 66.3535C274.2 65.954 273.455 65.6611 272.576 65.4747C271.697 65.2883 270.725 65.1951 269.66 65.1951H264.547V75.3013Z" fill="#0A1B38"/>
<path d="M91.0868 21.1167L69.5663 21.1441L47.5985 58.5387L58.5032 77.3892L67.7634 61.591C68.4506 60.0999 64.6493 53.9743 63.8335 55.3336L58.4849 64.2699L55.1777 58.5524L73.3344 27.6937L79.6765 27.6855L76.7433 32.7239C75.7287 34.1131 79.7529 40.4437 80.552 39.2075L91.0868 21.1167ZM16 21L52.6651 84.505L53.5001 86L57.3038 79.4535L56.4009 77.8685L45.2596 58.5524L67.1351 21.0843L59.5673 21.0772L41.4068 51.8982L23.6474 21.1384L16 21Z" fill="white" stroke="#0A1B38" stroke-width="1.17039" stroke-linecap="round" stroke-linejoin="round"/>
<path d="M148.322 21.759H140.332L134.301 32.2247L128.269 21.759H120L130.626 38.0568V50.0405H137.456V38.0568L148.322 21.759Z" fill="#0A1B38"/>
<path d="M170.208 50.0405V44.2084H157.066V38.3364H168.81V32.8639H157.066V27.5511H169.489V21.759H150.475V50.0405H170.208Z" fill="#0A1B38"/>
<path d="M192.556 50.0405V44.0886H181.611V21.759H174.74V50.0405H192.556Z" fill="#0A1B38"/>
<path d="M213.542 50.0405V44.0886H202.597V21.759H195.727V50.0405H213.542Z" fill="#0A1B38"/>
<path d="M245.023 35.7799C245.023 26.7122 238.472 21 229.604 21C220.776 21 214.225 26.7122 214.225 35.7799C214.225 44.7277 220.776 50.7996 229.604 50.7996C238.472 50.7996 245.023 44.7277 245.023 35.7799ZM237.713 35.7799C237.713 40.893 234.357 44.568 229.604 44.568C224.85 44.568 221.535 40.893 221.535 35.7799C221.535 30.8266 224.81 27.1516 229.604 27.1516C234.397 27.1516 237.713 30.8266 237.713 35.7799Z" fill="#0A1B38"/>
<path d="M287.642 21.7593H280.531L275.977 40.5736H275.858L270.297 26.5542L272.051 21.8744H264.94L258.641 40.5736H258.521L254.047 21.7593H246.697L254.726 50.0408H261.517L266.649 35.3383H266.769L272.822 50.0408H279.573L287.642 21.7593Z" fill="#0A1B38"/>
</svg>
