<svg width="56" height="49" viewBox="0 0 56 49" fill="none" xmlns="http://www.w3.org/2000/svg">
<path d="M46 48.5C45.6667 43.1667 42.2 30.3 31 21.5" stroke="black" stroke-opacity="0.3"/>
<path d="M29.9999 24.5C29.6665 23.3333 29.0999 20.9 29.4999 20.5C29.8999 20.1 32.3333 20 33.5 20" stroke="black" stroke-opacity="0.3"/>
<path d="M5.68945 9.9375C5.68945 10.2227 5.63477 10.4902 5.52539 10.7402C5.41992 10.9902 5.27344 11.209 5.08594 11.3965C4.89844 11.584 4.67773 11.7324 4.42383 11.8418C4.17383 11.9473 3.90625 12 3.62109 12H0.960938V3.59766H3.62109C3.90625 3.59766 4.17383 3.65234 4.42383 3.76172C4.67773 3.86719 4.89844 4.01367 5.08594 4.20117C5.27344 4.38867 5.41992 4.60938 5.52539 4.86328C5.63477 5.11328 5.68945 5.38086 5.68945 5.66602V9.9375ZM4.93359 5.66602C4.93359 5.47852 4.89844 5.30469 4.82812 5.14453C4.75781 4.98047 4.66016 4.83789 4.53516 4.7168C4.41406 4.5918 4.27148 4.49414 4.10742 4.42383C3.94727 4.35352 3.77344 4.31836 3.58594 4.31836H1.7168V11.2793H3.58594C3.77344 11.2793 3.94727 11.2441 4.10742 11.1738C4.27148 11.1035 4.41406 11.0078 4.53516 10.8867C4.66016 10.7656 4.75781 10.625 4.82812 10.4648C4.89844 10.3008 4.93359 10.125 4.93359 9.9375V5.66602ZM11.2559 10.3535C11.2559 10.5957 11.209 10.8242 11.1152 11.0391C11.0254 11.2539 10.9004 11.4414 10.7402 11.6016C10.5801 11.7617 10.3926 11.8887 10.1777 11.9824C9.96289 12.0723 9.73438 12.1172 9.49219 12.1172H9.01172C8.76953 12.1172 8.54102 12.0723 8.32617 11.9824C8.11133 11.8887 7.92383 11.7617 7.76367 11.6016C7.60352 11.4414 7.47656 11.2539 7.38281 11.0391C7.29297 10.8242 7.24805 10.5957 7.24805 10.3535V7.64648C7.24805 7.4043 7.29297 7.17578 7.38281 6.96094C7.47656 6.74609 7.60352 6.55859 7.76367 6.39844C7.92383 6.23828 8.11133 6.11328 8.32617 6.02344C8.54102 5.92969 8.76953 5.88281 9.01172 5.88281H9.49219C9.73438 5.88281 9.96289 5.92969 10.1777 6.02344C10.3926 6.11328 10.5801 6.23828 10.7402 6.39844C10.9004 6.55859 11.0254 6.74609 11.1152 6.96094C11.209 7.17578 11.2559 7.4043 11.2559 7.64648V9.05859H7.96875V10.3945C7.96875 10.5391 7.99609 10.6758 8.05078 10.8047C8.10547 10.9297 8.17969 11.0391 8.27344 11.1328C8.36719 11.2266 8.47656 11.3008 8.60156 11.3555C8.73047 11.4102 8.86719 11.4375 9.01172 11.4375H9.49219C9.63672 11.4375 9.77148 11.4102 9.89648 11.3555C10.0254 11.3008 10.1367 11.2266 10.2305 11.1328C10.3242 11.0391 10.3984 10.9297 10.4531 10.8047C10.5078 10.6758 10.5352 10.5391 10.5352 10.3945V9.99609L11.2559 10.1133V10.3535ZM10.5352 7.60547C10.5352 7.46094 10.5078 7.32617 10.4531 7.20117C10.3984 7.07227 10.3242 6.96094 10.2305 6.86719C10.1367 6.77344 10.0254 6.69922 9.89648 6.64453C9.77148 6.58984 9.63672 6.5625 9.49219 6.5625H9.01172C8.86719 6.5625 8.73047 6.58984 8.60156 6.64453C8.47656 6.69922 8.36719 6.77344 8.27344 6.86719C8.17969 6.96094 8.10547 7.07227 8.05078 7.20117C7.99609 7.32617 7.96875 7.46094 7.96875 7.60547V8.49609H10.5352V7.60547ZM12.9375 12V3.59766H13.6582V12H12.9375ZM15.5273 4.55859V3.59766H16.3652V4.55859H15.5273ZM15.5859 12V6H16.3066V12H15.5859ZM19.875 12H19.5176L17.3906 6H18.1113L19.6758 10.5469L19.6992 10.8574L19.7227 10.5469L21.2812 6H22.002L19.875 12ZM26.8535 10.3535C26.8535 10.5957 26.8066 10.8242 26.7129 11.0391C26.623 11.2539 26.498 11.4414 26.3379 11.6016C26.1777 11.7617 25.9902 11.8887 25.7754 11.9824C25.5605 12.0723 25.332 12.1172 25.0898 12.1172H24.6094C24.3672 12.1172 24.1387 12.0723 23.9238 11.9824C23.709 11.8887 23.5215 11.7617 23.3613 11.6016C23.2012 11.4414 23.0742 11.2539 22.9805 11.0391C22.8906 10.8242 22.8457 10.5957 22.8457 10.3535V7.64648C22.8457 7.4043 22.8906 7.17578 22.9805 6.96094C23.0742 6.74609 23.2012 6.55859 23.3613 6.39844C23.5215 6.23828 23.709 6.11328 23.9238 6.02344C24.1387 5.92969 24.3672 5.88281 24.6094 5.88281H25.0898C25.332 5.88281 25.5605 5.92969 25.7754 6.02344C25.9902 6.11328 26.1777 6.23828 26.3379 6.39844C26.498 6.55859 26.623 6.74609 26.7129 6.96094C26.8066 7.17578 26.8535 7.4043 26.8535 7.64648V9.05859H23.5664V10.3945C23.5664 10.5391 23.5938 10.6758 23.6484 10.8047C23.7031 10.9297 23.7773 11.0391 23.8711 11.1328C23.9648 11.2266 24.0742 11.3008 24.1992 11.3555C24.3281 11.4102 24.4648 11.4375 24.6094 11.4375H25.0898C25.2344 11.4375 25.3691 11.4102 25.4941 11.3555C25.623 11.3008 25.7344 11.2266 25.8281 11.1328C25.9219 11.0391 25.9961 10.9297 26.0508 10.8047C26.1055 10.6758 26.1328 10.5391 26.1328 10.3945V9.99609L26.8535 10.1133V10.3535ZM26.1328 7.60547C26.1328 7.46094 26.1055 7.32617 26.0508 7.20117C25.9961 7.07227 25.9219 6.96094 25.8281 6.86719C25.7344 6.77344 25.623 6.69922 25.4941 6.64453C25.3691 6.58984 25.2344 6.5625 25.0898 6.5625H24.6094C24.4648 6.5625 24.3281 6.58984 24.1992 6.64453C24.0742 6.69922 23.9648 6.77344 23.8711 6.86719C23.7773 6.96094 23.7031 7.07227 23.6484 7.20117C23.5938 7.32617 23.5664 7.46094 23.5664 7.60547V8.49609H26.1328V7.60547ZM30.0586 6.68555C29.9141 6.68555 29.7773 6.71289 29.6484 6.76758C29.5234 6.82227 29.4141 6.89648 29.3203 6.99023C29.2266 7.08398 29.1523 7.19531 29.0977 7.32422C29.043 7.44922 29.0156 7.58398 29.0156 7.72852V12H28.2949V6H28.5352L28.9277 6.60938C29.0918 6.38672 29.2969 6.21094 29.543 6.08203C29.793 5.94922 30.0645 5.88281 30.3574 5.88281H30.7793V6.68555H30.0586ZM35.748 10.3535C35.748 10.5957 35.7012 10.8242 35.6074 11.0391C35.5176 11.2539 35.3926 11.4414 35.2324 11.6016C35.0723 11.7617 34.8848 11.8887 34.6699 11.9824C34.4551 12.0723 34.2266 12.1172 33.9844 12.1172H33.5039C33.2617 12.1172 33.0332 12.0723 32.8184 11.9824C32.6035 11.8887 32.416 11.7617 32.2559 11.6016C32.0957 11.4414 31.9688 11.2539 31.875 11.0391C31.7852 10.8242 31.7402 10.5957 31.7402 10.3535V7.64648C31.7402 7.4043 31.7852 7.17578 31.875 6.96094C31.9688 6.74609 32.0957 6.55859 32.2559 6.39844C32.416 6.23828 32.6035 6.11328 32.8184 6.02344C33.0332 5.92969 33.2617 5.88281 33.5039 5.88281H33.9844C34.2266 5.88281 34.4551 5.92969 34.6699 6.02344C34.8848 6.11328 35.0723 6.23828 35.2324 6.39844C35.3926 6.55859 35.5176 6.74609 35.6074 6.96094C35.7012 7.17578 35.748 7.4043 35.748 7.64648V9.05859H32.4609V10.3945C32.4609 10.5391 32.4883 10.6758 32.543 10.8047C32.5977 10.9297 32.6719 11.0391 32.7656 11.1328C32.8594 11.2266 32.9688 11.3008 33.0938 11.3555C33.2227 11.4102 33.3594 11.4375 33.5039 11.4375H33.9844C34.1289 11.4375 34.2637 11.4102 34.3887 11.3555C34.5176 11.3008 34.6289 11.2266 34.7227 11.1328C34.8164 11.0391 34.8906 10.9297 34.9453 10.8047C35 10.6758 35.0273 10.5391 35.0273 10.3945V9.99609L35.748 10.1133V10.3535ZM35.0273 7.60547C35.0273 7.46094 35 7.32617 34.9453 7.20117C34.8906 7.07227 34.8164 6.96094 34.7227 6.86719C34.6289 6.77344 34.5176 6.69922 34.3887 6.64453C34.2637 6.58984 34.1289 6.5625 33.9844 6.5625H33.5039C33.3594 6.5625 33.2227 6.58984 33.0938 6.64453C32.9688 6.69922 32.8594 6.77344 32.7656 6.86719C32.6719 6.96094 32.5977 7.07227 32.543 7.20117C32.4883 7.32617 32.4609 7.46094 32.4609 7.60547V8.49609H35.0273V7.60547ZM40.957 12L40.5586 11.3906C40.3945 11.6133 40.1895 11.791 39.9434 11.9238C39.6973 12.0527 39.4277 12.1172 39.1348 12.1172H38.9531C38.7109 12.1172 38.4824 12.0723 38.2676 11.9824C38.0527 11.8887 37.8652 11.7617 37.7051 11.6016C37.5449 11.4414 37.418 11.2539 37.3242 11.0391C37.2344 10.8242 37.1895 10.5957 37.1895 10.3535V7.64648C37.1895 7.4043 37.2344 7.17578 37.3242 6.96094C37.418 6.74609 37.5449 6.55859 37.7051 6.39844C37.8652 6.23828 38.0527 6.11328 38.2676 6.02344C38.4824 5.92969 38.7109 5.88281 38.9531 5.88281H39.1348C39.4043 5.88281 39.6543 5.9375 39.8848 6.04688C40.1152 6.15625 40.3125 6.30859 40.4766 6.50391V3.59766H41.1973V12H40.957ZM40.4766 7.60547C40.4766 7.46094 40.4492 7.32617 40.3945 7.20117C40.3398 7.07227 40.2656 6.96094 40.1719 6.86719C40.0781 6.77344 39.9668 6.69922 39.8379 6.64453C39.7129 6.58984 39.5781 6.5625 39.4336 6.5625H38.9531C38.8086 6.5625 38.6719 6.58984 38.543 6.64453C38.418 6.69922 38.3086 6.77344 38.2148 6.86719C38.1211 6.96094 38.0469 7.07227 37.9922 7.20117C37.9375 7.32617 37.9102 7.46094 37.9102 7.60547V10.3945C37.9102 10.5391 37.9375 10.6758 37.9922 10.8047C38.0469 10.9297 38.1211 11.0391 38.2148 11.1328C38.3086 11.2266 38.418 11.3008 38.543 11.3555C38.6719 11.4102 38.8086 11.4375 38.9531 11.4375H39.4336C39.5781 11.4375 39.7129 11.4102 39.8379 11.3555C39.9668 11.3008 40.0781 11.2266 40.1719 11.1328C40.2656 11.0391 40.3398 10.9297 40.3945 10.8047C40.4492 10.6758 40.4766 10.5391 40.4766 10.3945V7.60547Z" fill="black" fill-opacity="0.8"/>
</svg>
