<svg width="69" height="60" viewBox="0 0 69 60" fill="none" xmlns="http://www.w3.org/2000/svg">
<path d="M69 0.5C55.5 0.5 35.5 17.5 31 26" stroke="black" stroke-opacity="0.3"/>
<path d="M29.9999 23C29.6665 24.1667 29.0999 26.6 29.4999 27C29.8999 27.4 32.3333 27.5 33.5 27.5" stroke="black" stroke-opacity="0.3"/>
<path d="M5.56641 44.0547C5.56641 44.3398 5.51172 44.6074 5.40234 44.8574C5.29688 45.1074 5.15039 45.3262 4.96289 45.5137C4.77539 45.7012 4.55664 45.8496 4.30664 45.959C4.05664 46.0645 3.78906 46.1172 3.50391 46.1172H2.90625C2.62109 46.1172 2.35156 46.0645 2.09766 45.959C1.84766 45.8496 1.62891 45.7012 1.44141 45.5137C1.25391 45.3262 1.10547 45.1074 0.996094 44.8574C0.890625 44.6074 0.837891 44.3398 0.837891 44.0547V39.543C0.837891 39.2578 0.890625 38.9902 0.996094 38.7402C1.10547 38.4902 1.25391 38.2715 1.44141 38.084C1.62891 37.8965 1.84766 37.75 2.09766 37.6445C2.35156 37.5352 2.62109 37.4805 2.90625 37.4805H3.50391C3.78906 37.4805 4.05664 37.5352 4.30664 37.6445C4.55664 37.75 4.77539 37.8965 4.96289 38.084C5.15039 38.2715 5.29688 38.4902 5.40234 38.7402C5.51172 38.9902 5.56641 39.2578 5.56641 39.543V44.0547ZM4.81055 39.543C4.81055 39.3555 4.77539 39.1816 4.70508 39.0215C4.63477 38.8574 4.53906 38.7148 4.41797 38.5938C4.29688 38.4727 4.1543 38.377 3.99023 38.3066C3.83008 38.2363 3.65625 38.2012 3.46875 38.2012H2.94141C2.75391 38.2012 2.57812 38.2363 2.41406 38.3066C2.25391 38.377 2.11133 38.4727 1.98633 38.5938C1.86523 38.7148 1.76953 38.8574 1.69922 39.0215C1.62891 39.1816 1.59375 39.3555 1.59375 39.543V44.0547C1.59375 44.2422 1.62891 44.418 1.69922 44.582C1.76953 44.7422 1.86523 44.8848 1.98633 45.0098C2.11133 45.1309 2.25391 45.2266 2.41406 45.2969C2.57812 45.3672 2.75391 45.4023 2.94141 45.4023H3.46875C3.65625 45.4023 3.83008 45.3672 3.99023 45.2969C4.1543 45.2266 4.29688 45.1309 4.41797 45.0098C4.53906 44.8848 4.63477 44.7422 4.70508 44.582C4.77539 44.418 4.81055 44.2422 4.81055 44.0547V39.543ZM8.89453 40.6855C8.75 40.6855 8.61328 40.7129 8.48438 40.7676C8.35938 40.8223 8.25 40.8965 8.15625 40.9902C8.0625 41.084 7.98828 41.1953 7.93359 41.3242C7.87891 41.4492 7.85156 41.584 7.85156 41.7285V46H7.13086V40H7.37109L7.76367 40.6094C7.92773 40.3867 8.13281 40.2109 8.37891 40.082C8.62891 39.9492 8.90039 39.8828 9.19336 39.8828H9.61523V40.6855H8.89453ZM14.3438 46L13.9453 45.3906C13.7812 45.6133 13.5762 45.791 13.3301 45.9238C13.084 46.0527 12.8145 46.1172 12.5215 46.1172H12.3398C12.0977 46.1172 11.8691 46.0723 11.6543 45.9824C11.4395 45.8887 11.252 45.7617 11.0918 45.6016C10.9316 45.4414 10.8047 45.2539 10.7109 45.0391C10.6211 44.8242 10.5762 44.5957 10.5762 44.3535V41.6465C10.5762 41.4043 10.6211 41.1758 10.7109 40.9609C10.8047 40.7461 10.9316 40.5586 11.0918 40.3984C11.252 40.2383 11.4395 40.1133 11.6543 40.0234C11.8691 39.9297 12.0977 39.8828 12.3398 39.8828H12.5215C12.791 39.8828 13.041 39.9375 13.2715 40.0469C13.502 40.1562 13.6992 40.3086 13.8633 40.5039V37.5977H14.584V46H14.3438ZM13.8633 41.6055C13.8633 41.4609 13.8359 41.3262 13.7812 41.2012C13.7266 41.0723 13.6523 40.9609 13.5586 40.8672C13.4648 40.7734 13.3535 40.6992 13.2246 40.6445C13.0996 40.5898 12.9648 40.5625 12.8203 40.5625H12.3398C12.1953 40.5625 12.0586 40.5898 11.9297 40.6445C11.8047 40.6992 11.6953 40.7734 11.6016 40.8672C11.5078 40.9609 11.4336 41.0723 11.3789 41.2012C11.3242 41.3262 11.2969 41.4609 11.2969 41.6055V44.3945C11.2969 44.5391 11.3242 44.6758 11.3789 44.8047C11.4336 44.9297 11.5078 45.0391 11.6016 45.1328C11.6953 45.2266 11.8047 45.3008 11.9297 45.3555C12.0586 45.4102 12.1953 45.4375 12.3398 45.4375H12.8203C12.9648 45.4375 13.0996 45.4102 13.2246 45.3555C13.3535 45.3008 13.4648 45.2266 13.5586 45.1328C13.6523 45.0391 13.7266 44.9297 13.7812 44.8047C13.8359 44.6758 13.8633 44.5391 13.8633 44.3945V41.6055ZM20.0332 44.3535C20.0332 44.5957 19.9863 44.8242 19.8926 45.0391C19.8027 45.2539 19.6777 45.4414 19.5176 45.6016C19.3574 45.7617 19.1699 45.8887 18.9551 45.9824C18.7402 46.0723 18.5117 46.1172 18.2695 46.1172H17.7891C17.5469 46.1172 17.3184 46.0723 17.1035 45.9824C16.8887 45.8887 16.7012 45.7617 16.541 45.6016C16.3809 45.4414 16.2539 45.2539 16.1602 45.0391C16.0703 44.8242 16.0254 44.5957 16.0254 44.3535V41.6465C16.0254 41.4043 16.0703 41.1758 16.1602 40.9609C16.2539 40.7461 16.3809 40.5586 16.541 40.3984C16.7012 40.2383 16.8887 40.1133 17.1035 40.0234C17.3184 39.9297 17.5469 39.8828 17.7891 39.8828H18.2695C18.5117 39.8828 18.7402 39.9297 18.9551 40.0234C19.1699 40.1133 19.3574 40.2383 19.5176 40.3984C19.6777 40.5586 19.8027 40.7461 19.8926 40.9609C19.9863 41.1758 20.0332 41.4043 20.0332 41.6465V43.0586H16.7461V44.3945C16.7461 44.5391 16.7734 44.6758 16.8281 44.8047C16.8828 44.9297 16.957 45.0391 17.0508 45.1328C17.1445 45.2266 17.2539 45.3008 17.3789 45.3555C17.5078 45.4102 17.6445 45.4375 17.7891 45.4375H18.2695C18.4141 45.4375 18.5488 45.4102 18.6738 45.3555C18.8027 45.3008 18.9141 45.2266 19.0078 45.1328C19.1016 45.0391 19.1758 44.9297 19.2305 44.8047C19.2852 44.6758 19.3125 44.5391 19.3125 44.3945V43.9961L20.0332 44.1133V44.3535ZM19.3125 41.6055C19.3125 41.4609 19.2852 41.3262 19.2305 41.2012C19.1758 41.0723 19.1016 40.9609 19.0078 40.8672C18.9141 40.7734 18.8027 40.6992 18.6738 40.6445C18.5488 40.5898 18.4141 40.5625 18.2695 40.5625H17.7891C17.6445 40.5625 17.5078 40.5898 17.3789 40.6445C17.2539 40.6992 17.1445 40.7734 17.0508 40.8672C16.957 40.9609 16.8828 41.0723 16.8281 41.2012C16.7734 41.3262 16.7461 41.4609 16.7461 41.6055V42.4961H19.3125V41.6055ZM23.2383 40.6855C23.0938 40.6855 22.957 40.7129 22.8281 40.7676C22.7031 40.8223 22.5938 40.8965 22.5 40.9902C22.4062 41.084 22.332 41.1953 22.2773 41.3242C22.2227 41.4492 22.1953 41.584 22.1953 41.7285V46H21.4746V40H21.7148L22.1074 40.6094C22.2715 40.3867 22.4766 40.2109 22.7227 40.082C22.9727 39.9492 23.2441 39.8828 23.5371 39.8828H23.959V40.6855H23.2383ZM32.5312 44.0547C32.5312 44.3398 32.4727 44.6074 32.3555 44.8574C32.2422 45.1074 32.0879 45.3262 31.8926 45.5137C31.7012 45.7012 31.4766 45.8496 31.2188 45.959C30.9648 46.0645 30.6953 46.1172 30.4102 46.1172H29.8066C29.5215 46.1172 29.25 46.0645 28.9922 45.959C28.7383 45.8496 28.5137 45.7012 28.3184 45.5137C28.127 45.3262 27.9727 45.1074 27.8555 44.8574C27.7422 44.6074 27.6855 44.3398 27.6855 44.0547V43.7207L28.4414 43.5977V44.0547C28.4414 44.2422 28.4785 44.418 28.5527 44.582C28.6309 44.7422 28.7344 44.8848 28.8633 45.0098C28.9922 45.1309 29.1406 45.2266 29.3086 45.2969C29.4805 45.3672 29.6602 45.4023 29.8477 45.4023H30.375C30.5625 45.4023 30.7402 45.3672 30.9082 45.2969C31.0762 45.2266 31.2246 45.1309 31.3535 45.0098C31.4824 44.8848 31.584 44.7422 31.6582 44.582C31.7363 44.418 31.7754 44.2422 31.7754 44.0547V43.8027C31.7754 43.5137 31.7188 43.2734 31.6055 43.082C31.4922 42.8906 31.3418 42.7285 31.1543 42.5957C30.9668 42.459 30.7539 42.3438 30.5156 42.25C30.2812 42.1562 30.0391 42.0625 29.7891 41.9688C29.5391 41.875 29.2949 41.7715 29.0566 41.6582C28.8223 41.5449 28.6113 41.4043 28.4238 41.2363C28.2363 41.0645 28.0859 40.8555 27.9727 40.6094C27.8594 40.3633 27.8027 40.0605 27.8027 39.7012V39.543C27.8027 39.2578 27.8555 38.9902 27.9609 38.7402C28.0703 38.4902 28.2188 38.2715 28.4062 38.084C28.5938 37.8965 28.8125 37.75 29.0625 37.6445C29.3164 37.5352 29.5859 37.4805 29.8711 37.4805H30.4102C30.6953 37.4805 30.9629 37.5352 31.2129 37.6445C31.4629 37.75 31.6816 37.8965 31.8691 38.084C32.0566 38.2715 32.2031 38.4902 32.3086 38.7402C32.418 38.9902 32.4727 39.2578 32.4727 39.543V39.7598L31.7168 39.8828V39.543C31.7168 39.3555 31.6816 39.1816 31.6113 39.0215C31.541 38.8574 31.4453 38.7148 31.3242 38.5938C31.2031 38.4727 31.0605 38.377 30.8965 38.3066C30.7363 38.2363 30.5625 38.2012 30.375 38.2012H29.9062C29.7188 38.2012 29.543 38.2363 29.3789 38.3066C29.2188 38.377 29.0762 38.4727 28.9512 38.5938C28.8301 38.7148 28.7344 38.8574 28.6641 39.0215C28.5938 39.1816 28.5586 39.3555 28.5586 39.543V39.7012C28.5586 39.9707 28.6152 40.1973 28.7285 40.3809C28.8418 40.5645 28.9922 40.7227 29.1797 40.8555C29.3672 40.9844 29.5781 41.0977 29.8125 41.1953C30.0508 41.2891 30.2949 41.3867 30.5449 41.4883C30.7949 41.5859 31.0371 41.6953 31.2715 41.8164C31.5098 41.9336 31.7227 42.0801 31.9102 42.2559C32.0977 42.4277 32.248 42.6387 32.3613 42.8887C32.4746 43.1387 32.5312 43.4434 32.5312 43.8027V44.0547ZM36.1055 46C35.8867 46 35.6797 45.959 35.4844 45.877C35.293 45.7949 35.125 45.6816 34.9805 45.5371C34.8398 45.3926 34.7266 45.2246 34.6406 45.0332C34.5586 44.8418 34.5176 44.6367 34.5176 44.418V40.6855H33.4395V40H34.5176V38.5586L35.2383 38.4414V40H36.7617V40.6855H35.2383V44.4531C35.2383 44.5742 35.2598 44.6875 35.3027 44.793C35.3496 44.8945 35.4121 44.9844 35.4902 45.0625C35.5684 45.1406 35.6602 45.2031 35.7656 45.25C35.8711 45.293 35.9844 45.3145 36.1055 45.3145H36.7617V46H36.1055ZM41.8594 46L41.4609 45.4023C41.2969 45.6172 41.0918 45.791 40.8457 45.9238C40.5996 46.0527 40.3301 46.1172 40.0371 46.1172H39.8555C39.6133 46.1172 39.3848 46.0723 39.1699 45.9824C38.9551 45.8887 38.7676 45.7617 38.6074 45.6016C38.4473 45.4414 38.3203 45.2539 38.2266 45.0391C38.1367 44.8242 38.0918 44.5957 38.0918 44.3535V44.2949C38.0918 44.0527 38.1367 43.8242 38.2266 43.6094C38.3203 43.3945 38.4473 43.207 38.6074 43.0469C38.7676 42.8867 38.9551 42.7617 39.1699 42.6719C39.3848 42.5781 39.6133 42.5312 39.8555 42.5312H41.3789V41.6055C41.3789 41.4609 41.3516 41.3262 41.2969 41.2012C41.2422 41.0723 41.168 40.9609 41.0742 40.8672C40.9805 40.7734 40.8691 40.6992 40.7402 40.6445C40.6152 40.5898 40.4805 40.5625 40.3359 40.5625H39.9141C39.7695 40.5625 39.6328 40.5898 39.5039 40.6445C39.3789 40.6992 39.2695 40.7734 39.1758 40.8672C39.082 40.9609 39.0078 41.0723 38.9531 41.2012C38.8984 41.3262 38.8711 41.4609 38.8711 41.6055V41.8223L38.1504 41.7051V41.6465C38.1504 41.4043 38.1953 41.1758 38.2852 40.9609C38.3789 40.7461 38.5059 40.5586 38.666 40.3984C38.8262 40.2383 39.0137 40.1133 39.2285 40.0234C39.4434 39.9297 39.6719 39.8828 39.9141 39.8828H40.3359C40.5781 39.8828 40.8066 39.9297 41.0215 40.0234C41.2363 40.1133 41.4238 40.2383 41.584 40.3984C41.7441 40.5586 41.8691 40.7461 41.959 40.9609C42.0527 41.1758 42.0996 41.4043 42.0996 41.6465V46H41.8594ZM41.3789 43.0938H39.8555C39.7109 43.0938 39.5742 43.1211 39.4453 43.1758C39.3203 43.2305 39.2109 43.3066 39.1172 43.4043C39.0234 43.498 38.9492 43.6094 38.8945 43.7383C38.8398 43.8633 38.8125 43.998 38.8125 44.1426V44.3945C38.8125 44.5391 38.8398 44.6758 38.8945 44.8047C38.9492 44.9297 39.0234 45.0391 39.1172 45.1328C39.2109 45.2266 39.3203 45.3008 39.4453 45.3555C39.5742 45.4102 39.7109 45.4375 39.8555 45.4375H40.3359C40.4805 45.4375 40.6152 45.4102 40.7402 45.3555C40.8691 45.3008 40.9805 45.2266 41.0742 45.1328C41.168 45.0391 41.2422 44.9297 41.2969 44.8047C41.3516 44.6758 41.3789 44.5391 41.3789 44.3945V43.0938ZM45.7266 46C45.5078 46 45.3008 45.959 45.1055 45.877C44.9141 45.7949 44.7461 45.6816 44.6016 45.5371C44.4609 45.3926 44.3477 45.2246 44.2617 45.0332C44.1797 44.8418 44.1387 44.6367 44.1387 44.418V40.6855H43.0605V40H44.1387V38.5586L44.8594 38.4414V40H46.3828V40.6855H44.8594V44.4531C44.8594 44.5742 44.8809 44.6875 44.9238 44.793C44.9707 44.8945 45.0332 44.9844 45.1113 45.0625C45.1895 45.1406 45.2812 45.2031 45.3867 45.25C45.4922 45.293 45.6055 45.3145 45.7266 45.3145H46.3828V46H45.7266ZM51.4805 46L51.082 45.3906C50.918 45.6133 50.7129 45.791 50.4668 45.9238C50.2207 46.0527 49.9512 46.1172 49.6582 46.1172H49.4766C49.2344 46.1172 49.0059 46.0723 48.791 45.9824C48.5762 45.8887 48.3887 45.7617 48.2285 45.6016C48.0684 45.4414 47.9414 45.2539 47.8477 45.0391C47.7578 44.8242 47.7129 44.5957 47.7129 44.3535V40H48.4336V44.3945C48.4336 44.5391 48.4609 44.6758 48.5156 44.8047C48.5703 44.9297 48.6445 45.0391 48.7383 45.1328C48.832 45.2266 48.9414 45.3008 49.0664 45.3555C49.1953 45.4102 49.332 45.4375 49.4766 45.4375H49.957C50.1016 45.4375 50.2363 45.4102 50.3613 45.3555C50.4902 45.3008 50.6016 45.2266 50.6953 45.1328C50.7891 45.0391 50.8633 44.9297 50.918 44.8047C50.9727 44.6758 51 44.5391 51 44.3945V40H51.7207V46H51.4805ZM57.2871 44.4766C57.2871 44.7188 57.2383 44.9414 57.1406 45.1445C57.043 45.3438 56.9102 45.5156 56.7422 45.6602C56.5742 45.8047 56.3789 45.918 56.1562 46C55.9375 46.0781 55.707 46.1172 55.4648 46.1172H54.9844C54.7422 46.1172 54.5098 46.0723 54.2871 45.9824C54.0684 45.8887 53.875 45.7617 53.707 45.6016C53.543 45.4414 53.4102 45.2539 53.3086 45.0391C53.2109 44.8242 53.1621 44.5957 53.1621 44.3535V44.1133L53.8828 43.9961V44.3945C53.8828 44.5391 53.9121 44.6758 53.9707 44.8047C54.0332 44.9297 54.1152 45.0391 54.2168 45.1328C54.3184 45.2266 54.4355 45.3008 54.5684 45.3555C54.7012 45.4102 54.8398 45.4375 54.9844 45.4375H55.4648C55.6094 45.4375 55.748 45.416 55.8809 45.373C56.0137 45.3301 56.1309 45.2695 56.2324 45.1914C56.3379 45.1094 56.4199 45.0117 56.4785 44.8984C56.541 44.7852 56.5723 44.6562 56.5723 44.5117C56.5723 44.2969 56.5254 44.1211 56.4316 43.9844C56.3379 43.8477 56.2129 43.7344 56.0566 43.6445C55.9043 43.5508 55.7285 43.4746 55.5293 43.416C55.334 43.3535 55.1328 43.293 54.9258 43.2344C54.7188 43.1719 54.5156 43.1016 54.3164 43.0234C54.1211 42.9453 53.9453 42.8438 53.7891 42.7188C53.6367 42.5898 53.5137 42.4297 53.4199 42.2383C53.3262 42.0469 53.2793 41.8086 53.2793 41.5234C53.2793 41.2812 53.3262 41.0605 53.4199 40.8613C53.5137 40.6582 53.6406 40.4844 53.8008 40.3398C53.9609 40.1953 54.1465 40.084 54.3574 40.0059C54.5723 39.9238 54.8008 39.8828 55.043 39.8828H55.4648C55.707 39.8828 55.9355 39.9297 56.1504 40.0234C56.3652 40.1133 56.5527 40.2383 56.7129 40.3984C56.873 40.5586 56.998 40.7461 57.0879 40.9609C57.1816 41.1758 57.2285 41.4043 57.2285 41.6465V41.6699L56.5078 41.7871V41.6055C56.5078 41.4609 56.4805 41.3262 56.4258 41.2012C56.3711 41.0723 56.2969 40.9609 56.2031 40.8672C56.1094 40.7734 55.998 40.6992 55.8691 40.6445C55.7441 40.5898 55.6094 40.5625 55.4648 40.5625H55.043C54.8984 40.5625 54.7617 40.584 54.6328 40.627C54.5078 40.6699 54.3984 40.7324 54.3047 40.8145C54.2109 40.8926 54.1367 40.9883 54.082 41.1016C54.0273 41.2148 54 41.3438 54 41.4883C54 41.6953 54.0469 41.8652 54.1406 41.998C54.2344 42.127 54.3574 42.2363 54.5098 42.3262C54.666 42.416 54.8418 42.4922 55.0371 42.5547C55.2363 42.6133 55.4375 42.6758 55.6406 42.7422C55.8477 42.8047 56.0488 42.877 56.2441 42.959C56.4434 43.041 56.6191 43.1465 56.7715 43.2754C56.9277 43.4043 57.0527 43.5664 57.1465 43.7617C57.2402 43.9531 57.2871 44.1914 57.2871 44.4766Z" fill="black" fill-opacity="0.8"/>
</svg>
