<svg width="107" height="49" viewBox="0 0 107 49" fill="none" xmlns="http://www.w3.org/2000/svg">
<path d="M1 48.5C1.33333 43.1667 4.8 30.3 16 21.5" stroke="black" stroke-opacity="0.3"/>
<path d="M17.0001 24.5C17.3335 23.3333 17.9001 20.9 17.5001 20.5C17.1001 20.1 14.6667 20 13.5 20" stroke="black" stroke-opacity="0.3"/>
<path d="M9.56641 10.0547C9.56641 10.3398 9.51172 10.6074 9.40234 10.8574C9.29688 11.1074 9.15039 11.3262 8.96289 11.5137C8.77539 11.7012 8.55664 11.8496 8.30664 11.959C8.05664 12.0645 7.78906 12.1172 7.50391 12.1172H6.90625C6.62109 12.1172 6.35156 12.0645 6.09766 11.959C5.84766 11.8496 5.62891 11.7012 5.44141 11.5137C5.25391 11.3262 5.10547 11.1074 4.99609 10.8574C4.89062 10.6074 4.83789 10.3398 4.83789 10.0547V5.54297C4.83789 5.25781 4.89062 4.99023 4.99609 4.74023C5.10547 4.49023 5.25391 4.27148 5.44141 4.08398C5.62891 3.89648 5.84766 3.75 6.09766 3.64453C6.35156 3.53516 6.62109 3.48047 6.90625 3.48047H7.50391C7.78906 3.48047 8.05664 3.53516 8.30664 3.64453C8.55664 3.75 8.77539 3.89648 8.96289 4.08398C9.15039 4.27148 9.29688 4.49023 9.40234 4.74023C9.51172 4.99023 9.56641 5.25781 9.56641 5.54297V5.88281L8.81055 6V5.54297C8.81055 5.35547 8.77539 5.18164 8.70508 5.02148C8.63477 4.85742 8.53906 4.71484 8.41797 4.59375C8.29688 4.47266 8.1543 4.37695 7.99023 4.30664C7.83008 4.23633 7.65625 4.20117 7.46875 4.20117H6.94141C6.75391 4.20117 6.57812 4.23633 6.41406 4.30664C6.25391 4.37695 6.11133 4.47266 5.98633 4.59375C5.86523 4.71484 5.76953 4.85742 5.69922 5.02148C5.62891 5.18164 5.59375 5.35547 5.59375 5.54297V10.0547C5.59375 10.2422 5.62891 10.418 5.69922 10.582C5.76953 10.7422 5.86523 10.8848 5.98633 11.0098C6.11133 11.1309 6.25391 11.2266 6.41406 11.2969C6.57812 11.3672 6.75391 11.4023 6.94141 11.4023H7.46875C7.65625 11.4023 7.83008 11.3672 7.99023 11.2969C8.1543 11.2266 8.29688 11.1309 8.41797 11.0098C8.53906 10.8848 8.63477 10.7422 8.70508 10.582C8.77539 10.418 8.81055 10.2422 8.81055 10.0547V9.59766L9.56641 9.7207V10.0547ZM15.0215 10.3535C15.0215 10.5957 14.9746 10.8242 14.8809 11.0391C14.791 11.2539 14.666 11.4414 14.5059 11.6016C14.3457 11.7617 14.1582 11.8887 13.9434 11.9824C13.7285 12.0723 13.5 12.1172 13.2578 12.1172H12.7773C12.5352 12.1172 12.3066 12.0723 12.0918 11.9824C11.877 11.8887 11.6895 11.7617 11.5293 11.6016C11.3691 11.4414 11.2422 11.2539 11.1484 11.0391C11.0586 10.8242 11.0137 10.5957 11.0137 10.3535V7.64648C11.0137 7.4043 11.0586 7.17578 11.1484 6.96094C11.2422 6.74609 11.3691 6.55859 11.5293 6.39844C11.6895 6.23828 11.877 6.11328 12.0918 6.02344C12.3066 5.92969 12.5352 5.88281 12.7773 5.88281H13.2578C13.5 5.88281 13.7285 5.92969 13.9434 6.02344C14.1582 6.11328 14.3457 6.23828 14.5059 6.39844C14.666 6.55859 14.791 6.74609 14.8809 6.96094C14.9746 7.17578 15.0215 7.4043 15.0215 7.64648V10.3535ZM14.3008 7.60547C14.3008 7.46094 14.2734 7.32617 14.2188 7.20117C14.1641 7.07227 14.0898 6.96094 13.9961 6.86719C13.9023 6.77344 13.791 6.69922 13.6621 6.64453C13.5371 6.58984 13.4023 6.5625 13.2578 6.5625H12.7773C12.6328 6.5625 12.4961 6.58984 12.3672 6.64453C12.2422 6.69922 12.1328 6.77344 12.0391 6.86719C11.9453 6.96094 11.8711 7.07227 11.8164 7.20117C11.7617 7.32617 11.7344 7.46094 11.7344 7.60547V10.3945C11.7344 10.5391 11.7617 10.6758 11.8164 10.8047C11.8711 10.9297 11.9453 11.0391 12.0391 11.1328C12.1328 11.2266 12.2422 11.3008 12.3672 11.3555C12.4961 11.4102 12.6328 11.4375 12.7773 11.4375H13.2578C13.4023 11.4375 13.5371 11.4102 13.6621 11.3555C13.791 11.3008 13.9023 11.2266 13.9961 11.1328C14.0898 11.0391 14.1641 10.9297 14.2188 10.8047C14.2734 10.6758 14.3008 10.5391 14.3008 10.3945V7.60547ZM16.7031 12V3.59766H17.4238V12H16.7031ZM19.3516 12V3.59766H20.0723V12H19.3516ZM25.5273 12L25.1289 11.4023C24.9648 11.6172 24.7598 11.791 24.5137 11.9238C24.2676 12.0527 23.998 12.1172 23.7051 12.1172H23.5234C23.2812 12.1172 23.0527 12.0723 22.8379 11.9824C22.623 11.8887 22.4355 11.7617 22.2754 11.6016C22.1152 11.4414 21.9883 11.2539 21.8945 11.0391C21.8047 10.8242 21.7598 10.5957 21.7598 10.3535V10.2949C21.7598 10.0527 21.8047 9.82422 21.8945 9.60938C21.9883 9.39453 22.1152 9.20703 22.2754 9.04688C22.4355 8.88672 22.623 8.76172 22.8379 8.67188C23.0527 8.57812 23.2812 8.53125 23.5234 8.53125H25.0469V7.60547C25.0469 7.46094 25.0195 7.32617 24.9648 7.20117C24.9102 7.07227 24.8359 6.96094 24.7422 6.86719C24.6484 6.77344 24.5371 6.69922 24.4082 6.64453C24.2832 6.58984 24.1484 6.5625 24.0039 6.5625H23.582C23.4375 6.5625 23.3008 6.58984 23.1719 6.64453C23.0469 6.69922 22.9375 6.77344 22.8438 6.86719C22.75 6.96094 22.6758 7.07227 22.6211 7.20117C22.5664 7.32617 22.5391 7.46094 22.5391 7.60547V7.82227L21.8184 7.70508V7.64648C21.8184 7.4043 21.8633 7.17578 21.9531 6.96094C22.0469 6.74609 22.1738 6.55859 22.334 6.39844C22.4941 6.23828 22.6816 6.11328 22.8965 6.02344C23.1113 5.92969 23.3398 5.88281 23.582 5.88281H24.0039C24.2461 5.88281 24.4746 5.92969 24.6895 6.02344C24.9043 6.11328 25.0918 6.23828 25.252 6.39844C25.4121 6.55859 25.5371 6.74609 25.627 6.96094C25.7207 7.17578 25.7676 7.4043 25.7676 7.64648V12H25.5273ZM25.0469 9.09375H23.5234C23.3789 9.09375 23.2422 9.12109 23.1133 9.17578C22.9883 9.23047 22.8789 9.30664 22.7852 9.4043C22.6914 9.49805 22.6172 9.60938 22.5625 9.73828C22.5078 9.86328 22.4805 9.99805 22.4805 10.1426V10.3945C22.4805 10.5391 22.5078 10.6758 22.5625 10.8047C22.6172 10.9297 22.6914 11.0391 22.7852 11.1328C22.8789 11.2266 22.9883 11.3008 23.1133 11.3555C23.2422 11.4102 23.3789 11.4375 23.5234 11.4375H24.0039C24.1484 11.4375 24.2832 11.4102 24.4082 11.3555C24.5371 11.3008 24.6484 11.2266 24.7422 11.1328C24.8359 11.0391 24.9102 10.9297 24.9648 10.8047C25.0195 10.6758 25.0469 10.5391 25.0469 10.3945V9.09375ZM31.2168 10.3535C31.2168 10.5957 31.1699 10.8242 31.0762 11.0391C30.9863 11.2539 30.8613 11.4414 30.7012 11.6016C30.541 11.7617 30.3535 11.8887 30.1387 11.9824C29.9238 12.0723 29.6953 12.1172 29.4531 12.1172H28.9727C28.7305 12.1172 28.502 12.0723 28.2871 11.9824C28.0723 11.8887 27.8848 11.7617 27.7246 11.6016C27.5645 11.4414 27.4375 11.2539 27.3438 11.0391C27.2539 10.8242 27.209 10.5957 27.209 10.3535V3.59766H27.9297V6.50391C28.0938 6.30859 28.291 6.15625 28.5215 6.04688C28.752 5.9375 29.002 5.88281 29.2715 5.88281H29.4531C29.6953 5.88281 29.9238 5.92969 30.1387 6.02344C30.3535 6.11328 30.541 6.23828 30.7012 6.39844C30.8613 6.55859 30.9863 6.74609 31.0762 6.96094C31.1699 7.17578 31.2168 7.4043 31.2168 7.64648V10.3535ZM30.4961 7.60547C30.4961 7.46094 30.4688 7.32617 30.4141 7.20117C30.3594 7.07227 30.2852 6.96094 30.1914 6.86719C30.0977 6.77344 29.9863 6.69922 29.8574 6.64453C29.7324 6.58984 29.5977 6.5625 29.4531 6.5625H28.9727C28.8281 6.5625 28.6914 6.58984 28.5625 6.64453C28.4375 6.69922 28.3281 6.77344 28.2344 6.86719C28.1406 6.96094 28.0664 7.07227 28.0117 7.20117C27.957 7.32617 27.9297 7.46094 27.9297 7.60547V10.3945C27.9297 10.5391 27.957 10.6758 28.0117 10.8047C28.0664 10.9297 28.1406 11.0391 28.2344 11.1328C28.3281 11.2266 28.4375 11.3008 28.5625 11.3555C28.6914 11.4102 28.8281 11.4375 28.9727 11.4375H29.4531C29.5977 11.4375 29.7324 11.4102 29.8574 11.3555C29.9863 11.3008 30.0977 11.2266 30.1914 11.1328C30.2852 11.0391 30.3594 10.9297 30.4141 10.8047C30.4688 10.6758 30.4961 10.5391 30.4961 10.3945V7.60547ZM36.666 10.3535C36.666 10.5957 36.6191 10.8242 36.5254 11.0391C36.4355 11.2539 36.3105 11.4414 36.1504 11.6016C35.9902 11.7617 35.8027 11.8887 35.5879 11.9824C35.373 12.0723 35.1445 12.1172 34.9023 12.1172H34.4219C34.1797 12.1172 33.9512 12.0723 33.7363 11.9824C33.5215 11.8887 33.334 11.7617 33.1738 11.6016C33.0137 11.4414 32.8867 11.2539 32.793 11.0391C32.7031 10.8242 32.6582 10.5957 32.6582 10.3535V7.64648C32.6582 7.4043 32.7031 7.17578 32.793 6.96094C32.8867 6.74609 33.0137 6.55859 33.1738 6.39844C33.334 6.23828 33.5215 6.11328 33.7363 6.02344C33.9512 5.92969 34.1797 5.88281 34.4219 5.88281H34.9023C35.1445 5.88281 35.373 5.92969 35.5879 6.02344C35.8027 6.11328 35.9902 6.23828 36.1504 6.39844C36.3105 6.55859 36.4355 6.74609 36.5254 6.96094C36.6191 7.17578 36.666 7.4043 36.666 7.64648V10.3535ZM35.9453 7.60547C35.9453 7.46094 35.918 7.32617 35.8633 7.20117C35.8086 7.07227 35.7344 6.96094 35.6406 6.86719C35.5469 6.77344 35.4355 6.69922 35.3066 6.64453C35.1816 6.58984 35.0469 6.5625 34.9023 6.5625H34.4219C34.2773 6.5625 34.1406 6.58984 34.0117 6.64453C33.8867 6.69922 33.7773 6.77344 33.6836 6.86719C33.5898 6.96094 33.5156 7.07227 33.4609 7.20117C33.4062 7.32617 33.3789 7.46094 33.3789 7.60547V10.3945C33.3789 10.5391 33.4062 10.6758 33.4609 10.8047C33.5156 10.9297 33.5898 11.0391 33.6836 11.1328C33.7773 11.2266 33.8867 11.3008 34.0117 11.3555C34.1406 11.4102 34.2773 11.4375 34.4219 11.4375H34.9023C35.0469 11.4375 35.1816 11.4102 35.3066 11.3555C35.4355 11.3008 35.5469 11.2266 35.6406 11.1328C35.7344 11.0391 35.8086 10.9297 35.8633 10.8047C35.918 10.6758 35.9453 10.5391 35.9453 10.3945V7.60547ZM39.8711 6.68555C39.7266 6.68555 39.5898 6.71289 39.4609 6.76758C39.3359 6.82227 39.2266 6.89648 39.1328 6.99023C39.0391 7.08398 38.9648 7.19531 38.9102 7.32422C38.8555 7.44922 38.8281 7.58398 38.8281 7.72852V12H38.1074V6H38.3477L38.7402 6.60938C38.9043 6.38672 39.1094 6.21094 39.3555 6.08203C39.6055 5.94922 39.877 5.88281 40.1699 5.88281H40.5918V6.68555H39.8711ZM45.3203 12L44.9219 11.4023C44.7578 11.6172 44.5527 11.791 44.3066 11.9238C44.0605 12.0527 43.791 12.1172 43.498 12.1172H43.3164C43.0742 12.1172 42.8457 12.0723 42.6309 11.9824C42.416 11.8887 42.2285 11.7617 42.0684 11.6016C41.9082 11.4414 41.7812 11.2539 41.6875 11.0391C41.5977 10.8242 41.5527 10.5957 41.5527 10.3535V10.2949C41.5527 10.0527 41.5977 9.82422 41.6875 9.60938C41.7812 9.39453 41.9082 9.20703 42.0684 9.04688C42.2285 8.88672 42.416 8.76172 42.6309 8.67188C42.8457 8.57812 43.0742 8.53125 43.3164 8.53125H44.8398V7.60547C44.8398 7.46094 44.8125 7.32617 44.7578 7.20117C44.7031 7.07227 44.6289 6.96094 44.5352 6.86719C44.4414 6.77344 44.3301 6.69922 44.2012 6.64453C44.0762 6.58984 43.9414 6.5625 43.7969 6.5625H43.375C43.2305 6.5625 43.0938 6.58984 42.9648 6.64453C42.8398 6.69922 42.7305 6.77344 42.6367 6.86719C42.543 6.96094 42.4688 7.07227 42.4141 7.20117C42.3594 7.32617 42.332 7.46094 42.332 7.60547V7.82227L41.6113 7.70508V7.64648C41.6113 7.4043 41.6562 7.17578 41.7461 6.96094C41.8398 6.74609 41.9668 6.55859 42.127 6.39844C42.2871 6.23828 42.4746 6.11328 42.6895 6.02344C42.9043 5.92969 43.1328 5.88281 43.375 5.88281H43.7969C44.0391 5.88281 44.2676 5.92969 44.4824 6.02344C44.6973 6.11328 44.8848 6.23828 45.0449 6.39844C45.2051 6.55859 45.3301 6.74609 45.4199 6.96094C45.5137 7.17578 45.5605 7.4043 45.5605 7.64648V12H45.3203ZM44.8398 9.09375H43.3164C43.1719 9.09375 43.0352 9.12109 42.9062 9.17578C42.7812 9.23047 42.6719 9.30664 42.5781 9.4043C42.4844 9.49805 42.4102 9.60938 42.3555 9.73828C42.3008 9.86328 42.2734 9.99805 42.2734 10.1426V10.3945C42.2734 10.5391 42.3008 10.6758 42.3555 10.8047C42.4102 10.9297 42.4844 11.0391 42.5781 11.1328C42.6719 11.2266 42.7812 11.3008 42.9062 11.3555C43.0352 11.4102 43.1719 11.4375 43.3164 11.4375H43.7969C43.9414 11.4375 44.0762 11.4102 44.2012 11.3555C44.3301 11.3008 44.4414 11.2266 44.5352 11.1328C44.6289 11.0391 44.7031 10.9297 44.7578 10.8047C44.8125 10.6758 44.8398 10.5391 44.8398 10.3945V9.09375ZM49.1875 12C48.9688 12 48.7617 11.959 48.5664 11.877C48.375 11.7949 48.207 11.6816 48.0625 11.5371C47.9219 11.3926 47.8086 11.2246 47.7227 11.0332C47.6406 10.8418 47.5996 10.6367 47.5996 10.418V6.68555H46.5215V6H47.5996V4.55859L48.3203 4.44141V6H49.8438V6.68555H48.3203V10.4531C48.3203 10.5742 48.3418 10.6875 48.3848 10.793C48.4316 10.8945 48.4941 10.9844 48.5723 11.0625C48.6504 11.1406 48.7422 11.2031 48.8477 11.25C48.9531 11.293 49.0664 11.3145 49.1875 11.3145H49.8438V12H49.1875ZM51.3555 4.55859V3.59766H52.1934V4.55859H51.3555ZM51.4141 12V6H52.1348V12H51.4141ZM57.8301 10.3535C57.8301 10.5957 57.7832 10.8242 57.6895 11.0391C57.5996 11.2539 57.4746 11.4414 57.3145 11.6016C57.1543 11.7617 56.9668 11.8887 56.752 11.9824C56.5371 12.0723 56.3086 12.1172 56.0664 12.1172H55.5859C55.3438 12.1172 55.1152 12.0723 54.9004 11.9824C54.6855 11.8887 54.498 11.7617 54.3379 11.6016C54.1777 11.4414 54.0508 11.2539 53.957 11.0391C53.8672 10.8242 53.8223 10.5957 53.8223 10.3535V7.64648C53.8223 7.4043 53.8672 7.17578 53.957 6.96094C54.0508 6.74609 54.1777 6.55859 54.3379 6.39844C54.498 6.23828 54.6855 6.11328 54.9004 6.02344C55.1152 5.92969 55.3438 5.88281 55.5859 5.88281H56.0664C56.3086 5.88281 56.5371 5.92969 56.752 6.02344C56.9668 6.11328 57.1543 6.23828 57.3145 6.39844C57.4746 6.55859 57.5996 6.74609 57.6895 6.96094C57.7832 7.17578 57.8301 7.4043 57.8301 7.64648V10.3535ZM57.1094 7.60547C57.1094 7.46094 57.082 7.32617 57.0273 7.20117C56.9727 7.07227 56.8984 6.96094 56.8047 6.86719C56.7109 6.77344 56.5996 6.69922 56.4707 6.64453C56.3457 6.58984 56.2109 6.5625 56.0664 6.5625H55.5859C55.4414 6.5625 55.3047 6.58984 55.1758 6.64453C55.0508 6.69922 54.9414 6.77344 54.8477 6.86719C54.7539 6.96094 54.6797 7.07227 54.625 7.20117C54.5703 7.32617 54.543 7.46094 54.543 7.60547V10.3945C54.543 10.5391 54.5703 10.6758 54.625 10.8047C54.6797 10.9297 54.7539 11.0391 54.8477 11.1328C54.9414 11.2266 55.0508 11.3008 55.1758 11.3555C55.3047 11.4102 55.4414 11.4375 55.5859 11.4375H56.0664C56.2109 11.4375 56.3457 11.4102 56.4707 11.3555C56.5996 11.3008 56.7109 11.2266 56.8047 11.1328C56.8984 11.0391 56.9727 10.9297 57.0273 10.8047C57.082 10.6758 57.1094 10.5391 57.1094 10.3945V7.60547ZM62.5586 12V7.60547C62.5586 7.46094 62.5312 7.32617 62.4766 7.20117C62.4219 7.07227 62.3477 6.96094 62.2539 6.86719C62.1602 6.77344 62.0488 6.69922 61.9199 6.64453C61.7949 6.58984 61.6602 6.5625 61.5156 6.5625H61.0352C60.8906 6.5625 60.7539 6.58984 60.625 6.64453C60.5 6.69922 60.3906 6.77344 60.2969 6.86719C60.2031 6.96094 60.1289 7.07227 60.0742 7.20117C60.0195 7.32617 59.9922 7.46094 59.9922 7.60547V12H59.2715V6H59.5117L59.9043 6.60938C60.0684 6.38672 60.2734 6.21094 60.5195 6.08203C60.7695 5.94922 61.041 5.88281 61.334 5.88281H61.5156C61.7578 5.88281 61.9863 5.92969 62.2012 6.02344C62.416 6.11328 62.6035 6.23828 62.7637 6.39844C62.9238 6.55859 63.0488 6.74609 63.1387 6.96094C63.2324 7.17578 63.2793 7.4043 63.2793 7.64648V12H62.5586ZM72.332 10.0547C72.332 10.3398 72.2734 10.6074 72.1562 10.8574C72.043 11.1074 71.8887 11.3262 71.6934 11.5137C71.502 11.7012 71.2773 11.8496 71.0195 11.959C70.7656 12.0645 70.4961 12.1172 70.2109 12.1172H69.6074C69.3223 12.1172 69.0508 12.0645 68.793 11.959C68.5391 11.8496 68.3145 11.7012 68.1191 11.5137C67.9277 11.3262 67.7734 11.1074 67.6562 10.8574C67.543 10.6074 67.4863 10.3398 67.4863 10.0547V9.7207L68.2422 9.59766V10.0547C68.2422 10.2422 68.2793 10.418 68.3535 10.582C68.4316 10.7422 68.5352 10.8848 68.6641 11.0098C68.793 11.1309 68.9414 11.2266 69.1094 11.2969C69.2812 11.3672 69.4609 11.4023 69.6484 11.4023H70.1758C70.3633 11.4023 70.541 11.3672 70.709 11.2969C70.877 11.2266 71.0254 11.1309 71.1543 11.0098C71.2832 10.8848 71.3848 10.7422 71.459 10.582C71.5371 10.418 71.5762 10.2422 71.5762 10.0547V9.80273C71.5762 9.51367 71.5195 9.27344 71.4062 9.08203C71.293 8.89062 71.1426 8.72852 70.9551 8.5957C70.7676 8.45898 70.5547 8.34375 70.3164 8.25C70.082 8.15625 69.8398 8.0625 69.5898 7.96875C69.3398 7.875 69.0957 7.77148 68.8574 7.6582C68.623 7.54492 68.4121 7.4043 68.2246 7.23633C68.0371 7.06445 67.8867 6.85547 67.7734 6.60938C67.6602 6.36328 67.6035 6.06055 67.6035 5.70117V5.54297C67.6035 5.25781 67.6562 4.99023 67.7617 4.74023C67.8711 4.49023 68.0195 4.27148 68.207 4.08398C68.3945 3.89648 68.6133 3.75 68.8633 3.64453C69.1172 3.53516 69.3867 3.48047 69.6719 3.48047H70.2109C70.4961 3.48047 70.7637 3.53516 71.0137 3.64453C71.2637 3.75 71.4824 3.89648 71.6699 4.08398C71.8574 4.27148 72.0039 4.49023 72.1094 4.74023C72.2188 4.99023 72.2734 5.25781 72.2734 5.54297V5.75977L71.5176 5.88281V5.54297C71.5176 5.35547 71.4824 5.18164 71.4121 5.02148C71.3418 4.85742 71.2461 4.71484 71.125 4.59375C71.0039 4.47266 70.8613 4.37695 70.6973 4.30664C70.5371 4.23633 70.3633 4.20117 70.1758 4.20117H69.707C69.5195 4.20117 69.3438 4.23633 69.1797 4.30664C69.0195 4.37695 68.877 4.47266 68.752 4.59375C68.6309 4.71484 68.5352 4.85742 68.4648 5.02148C68.3945 5.18164 68.3594 5.35547 68.3594 5.54297V5.70117C68.3594 5.9707 68.416 6.19727 68.5293 6.38086C68.6426 6.56445 68.793 6.72266 68.9805 6.85547C69.168 6.98438 69.3789 7.09766 69.6133 7.19531C69.8516 7.28906 70.0957 7.38672 70.3457 7.48828C70.5957 7.58594 70.8379 7.69531 71.0723 7.81641C71.3105 7.93359 71.5234 8.08008 71.7109 8.25586C71.8984 8.42773 72.0488 8.63867 72.1621 8.88867C72.2754 9.13867 72.332 9.44336 72.332 9.80273V10.0547ZM75.9062 12C75.6875 12 75.4805 11.959 75.2852 11.877C75.0938 11.7949 74.9258 11.6816 74.7812 11.5371C74.6406 11.3926 74.5273 11.2246 74.4414 11.0332C74.3594 10.8418 74.3184 10.6367 74.3184 10.418V6.68555H73.2402V6H74.3184V4.55859L75.0391 4.44141V6H76.5625V6.68555H75.0391V10.4531C75.0391 10.5742 75.0605 10.6875 75.1035 10.793C75.1504 10.8945 75.2129 10.9844 75.291 11.0625C75.3691 11.1406 75.4609 11.2031 75.5664 11.25C75.6719 11.293 75.7852 11.3145 75.9062 11.3145H76.5625V12H75.9062ZM81.6602 12L81.2617 11.4023C81.0977 11.6172 80.8926 11.791 80.6465 11.9238C80.4004 12.0527 80.1309 12.1172 79.8379 12.1172H79.6562C79.4141 12.1172 79.1855 12.0723 78.9707 11.9824C78.7559 11.8887 78.5684 11.7617 78.4082 11.6016C78.248 11.4414 78.1211 11.2539 78.0273 11.0391C77.9375 10.8242 77.8926 10.5957 77.8926 10.3535V10.2949C77.8926 10.0527 77.9375 9.82422 78.0273 9.60938C78.1211 9.39453 78.248 9.20703 78.4082 9.04688C78.5684 8.88672 78.7559 8.76172 78.9707 8.67188C79.1855 8.57812 79.4141 8.53125 79.6562 8.53125H81.1797V7.60547C81.1797 7.46094 81.1523 7.32617 81.0977 7.20117C81.043 7.07227 80.9688 6.96094 80.875 6.86719C80.7812 6.77344 80.6699 6.69922 80.541 6.64453C80.416 6.58984 80.2812 6.5625 80.1367 6.5625H79.7148C79.5703 6.5625 79.4336 6.58984 79.3047 6.64453C79.1797 6.69922 79.0703 6.77344 78.9766 6.86719C78.8828 6.96094 78.8086 7.07227 78.7539 7.20117C78.6992 7.32617 78.6719 7.46094 78.6719 7.60547V7.82227L77.9512 7.70508V7.64648C77.9512 7.4043 77.9961 7.17578 78.0859 6.96094C78.1797 6.74609 78.3066 6.55859 78.4668 6.39844C78.627 6.23828 78.8145 6.11328 79.0293 6.02344C79.2441 5.92969 79.4727 5.88281 79.7148 5.88281H80.1367C80.3789 5.88281 80.6074 5.92969 80.8223 6.02344C81.0371 6.11328 81.2246 6.23828 81.3848 6.39844C81.5449 6.55859 81.6699 6.74609 81.7598 6.96094C81.8535 7.17578 81.9004 7.4043 81.9004 7.64648V12H81.6602ZM81.1797 9.09375H79.6562C79.5117 9.09375 79.375 9.12109 79.2461 9.17578C79.1211 9.23047 79.0117 9.30664 78.918 9.4043C78.8242 9.49805 78.75 9.60938 78.6953 9.73828C78.6406 9.86328 78.6133 9.99805 78.6133 10.1426V10.3945C78.6133 10.5391 78.6406 10.6758 78.6953 10.8047C78.75 10.9297 78.8242 11.0391 78.918 11.1328C79.0117 11.2266 79.1211 11.3008 79.2461 11.3555C79.375 11.4102 79.5117 11.4375 79.6562 11.4375H80.1367C80.2812 11.4375 80.416 11.4102 80.541 11.3555C80.6699 11.3008 80.7812 11.2266 80.875 11.1328C80.9688 11.0391 81.043 10.9297 81.0977 10.8047C81.1523 10.6758 81.1797 10.5391 81.1797 10.3945V9.09375ZM85.5273 12C85.3086 12 85.1016 11.959 84.9062 11.877C84.7148 11.7949 84.5469 11.6816 84.4023 11.5371C84.2617 11.3926 84.1484 11.2246 84.0625 11.0332C83.9805 10.8418 83.9395 10.6367 83.9395 10.418V6.68555H82.8613V6H83.9395V4.55859L84.6602 4.44141V6H86.1836V6.68555H84.6602V10.4531C84.6602 10.5742 84.6816 10.6875 84.7246 10.793C84.7715 10.8945 84.834 10.9844 84.9121 11.0625C84.9902 11.1406 85.082 11.2031 85.1875 11.25C85.293 11.293 85.4062 11.3145 85.5273 11.3145H86.1836V12H85.5273ZM91.2812 12L90.8828 11.3906C90.7188 11.6133 90.5137 11.791 90.2676 11.9238C90.0215 12.0527 89.752 12.1172 89.459 12.1172H89.2773C89.0352 12.1172 88.8066 12.0723 88.5918 11.9824C88.377 11.8887 88.1895 11.7617 88.0293 11.6016C87.8691 11.4414 87.7422 11.2539 87.6484 11.0391C87.5586 10.8242 87.5137 10.5957 87.5137 10.3535V6H88.2344V10.3945C88.2344 10.5391 88.2617 10.6758 88.3164 10.8047C88.3711 10.9297 88.4453 11.0391 88.5391 11.1328C88.6328 11.2266 88.7422 11.3008 88.8672 11.3555C88.9961 11.4102 89.1328 11.4375 89.2773 11.4375H89.7578C89.9023 11.4375 90.0371 11.4102 90.1621 11.3555C90.291 11.3008 90.4023 11.2266 90.4961 11.1328C90.5898 11.0391 90.6641 10.9297 90.7188 10.8047C90.7734 10.6758 90.8008 10.5391 90.8008 10.3945V6H91.5215V12H91.2812ZM97.0879 10.4766C97.0879 10.7188 97.0391 10.9414 96.9414 11.1445C96.8438 11.3438 96.7109 11.5156 96.543 11.6602C96.375 11.8047 96.1797 11.918 95.957 12C95.7383 12.0781 95.5078 12.1172 95.2656 12.1172H94.7852C94.543 12.1172 94.3105 12.0723 94.0879 11.9824C93.8691 11.8887 93.6758 11.7617 93.5078 11.6016C93.3438 11.4414 93.2109 11.2539 93.1094 11.0391C93.0117 10.8242 92.9629 10.5957 92.9629 10.3535V10.1133L93.6836 9.99609V10.3945C93.6836 10.5391 93.7129 10.6758 93.7715 10.8047C93.834 10.9297 93.916 11.0391 94.0176 11.1328C94.1191 11.2266 94.2363 11.3008 94.3691 11.3555C94.502 11.4102 94.6406 11.4375 94.7852 11.4375H95.2656C95.4102 11.4375 95.5488 11.416 95.6816 11.373C95.8145 11.3301 95.9316 11.2695 96.0332 11.1914C96.1387 11.1094 96.2207 11.0117 96.2793 10.8984C96.3418 10.7852 96.373 10.6562 96.373 10.5117C96.373 10.2969 96.3262 10.1211 96.2324 9.98438C96.1387 9.84766 96.0137 9.73438 95.8574 9.64453C95.7051 9.55078 95.5293 9.47461 95.3301 9.41602C95.1348 9.35352 94.9336 9.29297 94.7266 9.23438C94.5195 9.17188 94.3164 9.10156 94.1172 9.02344C93.9219 8.94531 93.7461 8.84375 93.5898 8.71875C93.4375 8.58984 93.3145 8.42969 93.2207 8.23828C93.127 8.04688 93.0801 7.80859 93.0801 7.52344C93.0801 7.28125 93.127 7.06055 93.2207 6.86133C93.3145 6.6582 93.4414 6.48438 93.6016 6.33984C93.7617 6.19531 93.9473 6.08398 94.1582 6.00586C94.373 5.92383 94.6016 5.88281 94.8438 5.88281H95.2656C95.5078 5.88281 95.7363 5.92969 95.9512 6.02344C96.166 6.11328 96.3535 6.23828 96.5137 6.39844C96.6738 6.55859 96.7988 6.74609 96.8887 6.96094C96.9824 7.17578 97.0293 7.4043 97.0293 7.64648V7.66992L96.3086 7.78711V7.60547C96.3086 7.46094 96.2812 7.32617 96.2266 7.20117C96.1719 7.07227 96.0977 6.96094 96.0039 6.86719C95.9102 6.77344 95.7988 6.69922 95.6699 6.64453C95.5449 6.58984 95.4102 6.5625 95.2656 6.5625H94.8438C94.6992 6.5625 94.5625 6.58398 94.4336 6.62695C94.3086 6.66992 94.1992 6.73242 94.1055 6.81445C94.0117 6.89258 93.9375 6.98828 93.8828 7.10156C93.8281 7.21484 93.8008 7.34375 93.8008 7.48828C93.8008 7.69531 93.8477 7.86523 93.9414 7.99805C94.0352 8.12695 94.1582 8.23633 94.3105 8.32617C94.4668 8.41602 94.6426 8.49219 94.8379 8.55469C95.0371 8.61328 95.2383 8.67578 95.4414 8.74219C95.6484 8.80469 95.8496 8.87695 96.0449 8.95898C96.2441 9.04102 96.4199 9.14648 96.5723 9.27539C96.7285 9.4043 96.8535 9.56641 96.9473 9.76172C97.041 9.95312 97.0879 10.1914 97.0879 10.4766Z" fill="black" fill-opacity="0.8"/>
</svg>
