<svg width="103" height="71" viewBox="0 0 103 71" fill="none" xmlns="http://www.w3.org/2000/svg">
<rect width="103" height="71" rx="10" fill="url(#paint0_linear_2117_2954)"/>
<path d="M18 65L34.1333 51L39.2667 56.1268L53.1639 46.7606L59.8 52.1667L84 30" stroke="white" stroke-width="2" stroke-linecap="round" stroke-linejoin="round"/>
<path d="M87 26L77 31.5L83 37L87 26Z" fill="white" stroke="white" stroke-width="2" stroke-linecap="round" stroke-linejoin="round"/>
<path d="M14.5623 12.668C15.6677 12.668 16.4744 12.8945 16.9822 13.3477C17.49 13.8008 17.7439 14.4355 17.7439 15.252C17.7439 15.623 17.6853 15.9766 17.5681 16.3125C17.4548 16.6445 17.2673 16.9395 17.0056 17.1973C16.7439 17.4512 16.3982 17.6523 15.9685 17.8008C15.5427 17.9492 15.0173 18.0234 14.3923 18.0234H13.4783V21.2344H12.072V12.668H14.5623ZM14.4685 13.834H13.4783V16.8516H14.2458C14.6873 16.8516 15.0623 16.8008 15.3708 16.6992C15.6794 16.5938 15.9138 16.4277 16.074 16.2012C16.2341 15.9746 16.3142 15.6758 16.3142 15.3047C16.3142 14.8086 16.1638 14.4395 15.863 14.1973C15.5662 13.9551 15.1013 13.834 14.4685 13.834ZM21.8982 14.625C22.4763 14.625 22.9724 14.7441 23.3865 14.9824C23.8005 15.2207 24.1189 15.5586 24.3416 15.9961C24.5642 16.4336 24.6755 16.957 24.6755 17.5664V18.3047H20.3455C20.3611 18.9336 20.5291 19.418 20.8494 19.7578C21.1736 20.0977 21.6267 20.2676 22.2087 20.2676C22.6228 20.2676 22.9939 20.2285 23.322 20.1504C23.6541 20.0684 23.9958 19.9492 24.3474 19.793V20.9121C24.0232 21.0645 23.6931 21.1758 23.3572 21.2461C23.0212 21.3164 22.6189 21.3516 22.1501 21.3516C21.5134 21.3516 20.9529 21.2285 20.4685 20.9824C19.988 20.7324 19.6111 20.3613 19.3376 19.8691C19.0681 19.377 18.9333 18.7656 18.9333 18.0352C18.9333 17.3086 19.0564 16.6914 19.3025 16.1836C19.5486 15.6758 19.8943 15.2891 20.3396 15.0234C20.7849 14.7578 21.3044 14.625 21.8982 14.625ZM21.8982 15.6621C21.4646 15.6621 21.113 15.8027 20.8435 16.084C20.5779 16.3652 20.4216 16.7773 20.3748 17.3203H23.3279C23.324 16.9961 23.2693 16.709 23.1638 16.459C23.0623 16.209 22.906 16.0137 22.6951 15.873C22.488 15.7324 22.2224 15.6621 21.8982 15.6621ZM29.5154 14.625C29.6248 14.625 29.7439 14.6309 29.8728 14.6426C30.0017 14.6543 30.113 14.6699 30.2068 14.6895L30.0779 15.9785C29.9958 15.9551 29.8943 15.9375 29.7732 15.9258C29.656 15.9141 29.5505 15.9082 29.4568 15.9082C29.2107 15.9082 28.9763 15.9492 28.7537 16.0312C28.531 16.1094 28.3337 16.2305 28.1619 16.3945C27.99 16.5547 27.8552 16.7559 27.7576 16.998C27.6599 17.2402 27.6111 17.5215 27.6111 17.8418V21.2344H26.2283V14.748H27.3064L27.4939 15.8906H27.5583C27.6873 15.6602 27.8474 15.4492 28.0388 15.2578C28.2302 15.0664 28.449 14.9141 28.6951 14.8008C28.9451 14.6836 29.2185 14.625 29.5154 14.625ZM34.6482 15.7969H33.072V21.2344H31.6951V15.7969H30.6345V15.1348L31.6951 14.7305V14.2793C31.6951 13.7285 31.781 13.291 31.9529 12.9668C32.1287 12.6426 32.3787 12.4102 32.7029 12.2695C33.031 12.125 33.4216 12.0527 33.8748 12.0527C34.1716 12.0527 34.4431 12.0781 34.6892 12.1289C34.9353 12.1758 35.1423 12.2305 35.3103 12.293L34.9529 13.3359C34.8201 13.293 34.6716 13.2539 34.5076 13.2188C34.3435 13.1797 34.1677 13.1602 33.9802 13.1602C33.6677 13.1602 33.4373 13.2578 33.2888 13.4531C33.1443 13.6484 33.072 13.9336 33.072 14.3086V14.748H34.6482V15.7969ZM41.4978 17.9766C41.4978 18.5156 41.4275 18.9941 41.2869 19.4121C41.1462 19.8301 40.9412 20.1836 40.6716 20.4727C40.4021 20.7578 40.0779 20.9766 39.699 21.1289C39.3201 21.2773 38.8923 21.3516 38.4158 21.3516C37.9705 21.3516 37.5623 21.2773 37.1912 21.1289C36.8201 20.9766 36.4978 20.7578 36.2244 20.4727C35.9548 20.1836 35.7458 19.8301 35.5974 19.4121C35.449 18.9941 35.3748 18.5156 35.3748 17.9766C35.3748 17.2617 35.4978 16.6562 35.7439 16.1602C35.9939 15.6602 36.3494 15.2793 36.8103 15.0176C37.2712 14.7559 37.8201 14.625 38.4568 14.625C39.0544 14.625 39.5818 14.7559 40.0388 15.0176C40.4958 15.2793 40.8533 15.6602 41.1111 16.1602C41.3689 16.6602 41.4978 17.2656 41.4978 17.9766ZM36.7927 17.9766C36.7927 18.4492 36.8494 18.8535 36.9626 19.1895C37.0798 19.5254 37.2595 19.7832 37.5017 19.9629C37.7439 20.1387 38.0564 20.2266 38.4392 20.2266C38.822 20.2266 39.1345 20.1387 39.3767 19.9629C39.6189 19.7832 39.7966 19.5254 39.9099 19.1895C40.0232 18.8535 40.0798 18.4492 40.0798 17.9766C40.0798 17.5039 40.0232 17.1035 39.9099 16.7754C39.7966 16.4434 39.6189 16.1914 39.3767 16.0195C39.1345 15.8438 38.8201 15.7559 38.4333 15.7559C37.863 15.7559 37.447 15.9473 37.1853 16.3301C36.9236 16.7129 36.7927 17.2617 36.7927 17.9766ZM46.3669 14.625C46.4763 14.625 46.5955 14.6309 46.7244 14.6426C46.8533 14.6543 46.9646 14.6699 47.0583 14.6895L46.9294 15.9785C46.8474 15.9551 46.7458 15.9375 46.6248 15.9258C46.5076 15.9141 46.4021 15.9082 46.3083 15.9082C46.0623 15.9082 45.8279 15.9492 45.6052 16.0312C45.3826 16.1094 45.1853 16.2305 45.0134 16.3945C44.8416 16.5547 44.7068 16.7559 44.6091 16.998C44.5115 17.2402 44.4626 17.5215 44.4626 17.8418V21.2344H43.0798V14.748H44.158L44.3455 15.8906H44.4099C44.5388 15.6602 44.699 15.4492 44.8904 15.2578C45.0818 15.0664 45.3005 14.9141 45.5466 14.8008C45.7966 14.6836 46.0701 14.625 46.3669 14.625ZM55.5896 14.625C56.3162 14.625 56.863 14.8125 57.2302 15.1875C57.6013 15.5625 57.7869 16.1641 57.7869 16.9922V21.2344H56.4099V17.2383C56.4099 16.7461 56.3142 16.375 56.1228 16.125C55.9314 15.875 55.6404 15.75 55.2498 15.75C54.7029 15.75 54.3083 15.9258 54.0662 16.2773C53.8279 16.625 53.7087 17.1309 53.7087 17.7949V21.2344H52.3318V17.2383C52.3318 16.9102 52.2888 16.6367 52.2029 16.418C52.1208 16.1953 51.9939 16.0293 51.822 15.9199C51.6501 15.8066 51.4333 15.75 51.1716 15.75C50.7927 15.75 50.49 15.8359 50.2634 16.0078C50.0408 16.1797 49.8806 16.4336 49.783 16.7695C49.6853 17.1016 49.6365 17.5098 49.6365 17.9941V21.2344H48.2595V14.748H49.3318L49.5251 15.6211H49.6013C49.7341 15.3945 49.8982 15.209 50.0935 15.0645C50.2927 14.916 50.5134 14.8066 50.7556 14.7363C50.9978 14.6621 51.2498 14.625 51.5115 14.625C51.9958 14.625 52.4041 14.7109 52.7361 14.8828C53.0681 15.0508 53.3162 15.3086 53.4802 15.6562H53.5857C53.7888 15.3047 54.072 15.0449 54.4353 14.877C54.7986 14.709 55.1833 14.625 55.5896 14.625ZM62.2517 14.625C63.072 14.625 63.6912 14.8066 64.1091 15.1699C64.531 15.5332 64.7419 16.0996 64.7419 16.8691V21.2344H63.7634L63.4998 20.3145H63.4529C63.2693 20.5488 63.0798 20.7422 62.8845 20.8945C62.6892 21.0469 62.4626 21.1602 62.2048 21.2344C61.9509 21.3125 61.6404 21.3516 61.2732 21.3516C60.8865 21.3516 60.5408 21.2812 60.2361 21.1406C59.9314 20.9961 59.6912 20.7773 59.5154 20.4844C59.3396 20.1914 59.2517 19.8203 59.2517 19.3711C59.2517 18.7031 59.4998 18.2012 59.9958 17.8652C60.4958 17.5293 61.2498 17.3438 62.2576 17.3086L63.3826 17.2676V16.9277C63.3826 16.4785 63.2771 16.1582 63.0662 15.9668C62.8591 15.7754 62.5662 15.6797 62.1873 15.6797C61.863 15.6797 61.5486 15.7266 61.2439 15.8203C60.9392 15.9141 60.6423 16.0293 60.3533 16.166L59.908 15.1934C60.2244 15.0254 60.5837 14.8887 60.9861 14.7832C61.3923 14.6777 61.8142 14.625 62.2517 14.625ZM63.3767 18.1348L62.5388 18.1641C61.8513 18.1875 61.3689 18.3047 61.0916 18.5156C60.8142 18.7266 60.6755 19.0156 60.6755 19.3828C60.6755 19.7031 60.7712 19.9375 60.9626 20.0859C61.1541 20.2305 61.406 20.3027 61.7185 20.3027C62.1951 20.3027 62.5896 20.168 62.9021 19.8984C63.2185 19.625 63.3767 19.2246 63.3767 18.6973V18.1348ZM70.0505 14.625C70.781 14.625 71.3494 14.8145 71.7556 15.1934C72.1658 15.5684 72.3708 16.1719 72.3708 17.0039V21.2344H70.9939V17.2617C70.9939 16.7578 70.8904 16.3809 70.6833 16.1309C70.4763 15.877 70.156 15.75 69.7224 15.75C69.0935 15.75 68.656 15.9434 68.4099 16.3301C68.1677 16.7168 68.0466 17.2773 68.0466 18.0117V21.2344H66.6697V14.748H67.7419L67.9353 15.627H68.0115C68.1521 15.4004 68.3259 15.2148 68.533 15.0703C68.7439 14.9219 68.9783 14.8105 69.2361 14.7363C69.4978 14.6621 69.7693 14.625 70.0505 14.625ZM76.9119 21.3516C76.2986 21.3516 75.7673 21.2324 75.3181 20.9941C74.8689 20.7559 74.5232 20.3906 74.281 19.8984C74.0388 19.4062 73.9177 18.7812 73.9177 18.0234C73.9177 17.2344 74.0505 16.5898 74.3162 16.0898C74.5818 15.5898 74.949 15.2207 75.4177 14.9824C75.8904 14.7441 76.4314 14.625 77.0408 14.625C77.4275 14.625 77.7771 14.6641 78.0896 14.7422C78.406 14.8164 78.6736 14.9082 78.8923 15.0176L78.4822 16.1191C78.2439 16.0215 77.9998 15.9395 77.7498 15.873C77.4998 15.8066 77.2595 15.7734 77.0291 15.7734C76.6501 15.7734 76.3337 15.8574 76.0798 16.0254C75.8298 16.1934 75.6423 16.4434 75.5173 16.7754C75.3962 17.1074 75.3357 17.5195 75.3357 18.0117C75.3357 18.4883 75.3982 18.8906 75.5232 19.2188C75.6482 19.543 75.8337 19.7891 76.0798 19.957C76.3259 20.1211 76.6287 20.2031 76.988 20.2031C77.3435 20.2031 77.6619 20.1602 77.9431 20.0742C78.2244 19.9883 78.49 19.877 78.74 19.7402V20.9355C78.4939 21.0762 78.2302 21.1797 77.949 21.2461C77.6677 21.3164 77.322 21.3516 76.9119 21.3516ZM82.8474 14.625C83.4255 14.625 83.9216 14.7441 84.3357 14.9824C84.7498 15.2207 85.0681 15.5586 85.2908 15.9961C85.5134 16.4336 85.6248 16.957 85.6248 17.5664V18.3047H81.2947C81.3103 18.9336 81.4783 19.418 81.7986 19.7578C82.1228 20.0977 82.5759 20.2676 83.158 20.2676C83.572 20.2676 83.9431 20.2285 84.2712 20.1504C84.6033 20.0684 84.9451 19.9492 85.2966 19.793V20.9121C84.9724 21.0645 84.6423 21.1758 84.3064 21.2461C83.9705 21.3164 83.5681 21.3516 83.0994 21.3516C82.4626 21.3516 81.9021 21.2285 81.4177 20.9824C80.9373 20.7324 80.5603 20.3613 80.2869 19.8691C80.0173 19.377 79.8826 18.7656 79.8826 18.0352C79.8826 17.3086 80.0056 16.6914 80.2517 16.1836C80.4978 15.6758 80.8435 15.2891 81.2888 15.0234C81.7341 14.7578 82.2537 14.625 82.8474 14.625ZM82.8474 15.6621C82.4138 15.6621 82.0623 15.8027 81.7927 16.084C81.5271 16.3652 81.3708 16.7773 81.324 17.3203H84.2771C84.2732 16.9961 84.2185 16.709 84.113 16.459C84.0115 16.209 83.8552 16.0137 83.6443 15.873C83.4373 15.7324 83.1716 15.6621 82.8474 15.6621Z" fill="white" fill-opacity="0.75"/>
<path d="M11 63V29" stroke="white" stroke-opacity="0.1" stroke-width="2" stroke-linecap="round" stroke-linejoin="round"/>
<path d="M23 63V29" stroke="white" stroke-opacity="0.1" stroke-width="2" stroke-linecap="round" stroke-linejoin="round"/>
<path d="M35 63V29" stroke="white" stroke-opacity="0.1" stroke-width="2" stroke-linecap="round" stroke-linejoin="round"/>
<path d="M47 63V29" stroke="white" stroke-opacity="0.1" stroke-width="2" stroke-linecap="round" stroke-linejoin="round"/>
<path d="M60 63V29" stroke="white" stroke-opacity="0.1" stroke-width="2" stroke-linecap="round" stroke-linejoin="round"/>
<path d="M73 63V29" stroke="white" stroke-opacity="0.1" stroke-width="2" stroke-linecap="round" stroke-linejoin="round"/>
<path d="M87 63V29" stroke="white" stroke-opacity="0.1" stroke-width="2" stroke-linecap="round" stroke-linejoin="round"/>
<path d="M6 55H94" stroke="white" stroke-opacity="0.1" stroke-width="2" stroke-linecap="round" stroke-linejoin="round"/>
<path d="M6 63H94" stroke="white" stroke-opacity="0.1" stroke-width="2" stroke-linecap="round" stroke-linejoin="round"/>
<path d="M6 47H94" stroke="white" stroke-opacity="0.1" stroke-width="2" stroke-linecap="round" stroke-linejoin="round"/>
<path d="M6 37H94" stroke="white" stroke-opacity="0.1" stroke-width="2" stroke-linecap="round" stroke-linejoin="round"/>
<defs>
<linearGradient id="paint0_linear_2117_2954" x1="10.8421" y1="-6.46952e-07" x2="53.0478" y2="86.1727" gradientUnits="userSpaceOnUse">
<stop stop-color="#FFDE00"/>
<stop offset="1" stop-color="#DEA32C"/>
</linearGradient>
</defs>
</svg>
