<svg width="86" height="64" viewBox="0 0 86 64" fill="none" xmlns="http://www.w3.org/2000/svg">
<rect width="85.7974" height="63.1695" rx="10" fill="url(#paint0_linear_2061_2355)"/>
<path d="M15.4946 52.4438L28.6053 38.1413L32.7768 43.3788L44.0704 33.8102L49.4631 39.3332L69.1291 16.6875" stroke="white" stroke-width="2" stroke-linecap="round" stroke-linejoin="round"/>
<path d="M71.5126 13.1094L61.9775 18.4728L67.6985 23.8363L71.5126 13.1094Z" fill="white" stroke="white" stroke-width="2" stroke-linecap="round" stroke-linejoin="round"/>
<path d="M14.5332 12.4336C15.2715 12.4336 15.8809 12.5234 16.3613 12.7031C16.8457 12.8828 17.2051 13.1562 17.4395 13.5234C17.6777 13.8906 17.7969 14.3574 17.7969 14.9238C17.7969 15.3457 17.7188 15.7051 17.5625 16.002C17.4062 16.2988 17.2012 16.5449 16.9473 16.7402C16.6934 16.9355 16.4219 17.0918 16.1328 17.209L18.5645 21H16.9766L14.9082 17.5664H13.5312V21H12.125V12.4336H14.5332ZM14.4395 13.6055H13.5312V16.4062H14.5039C15.1562 16.4062 15.6289 16.2852 15.9219 16.043C16.2188 15.8008 16.3672 15.4434 16.3672 14.9707C16.3672 14.4746 16.209 14.123 15.8926 13.916C15.5801 13.709 15.0957 13.6055 14.4395 13.6055ZM27.3945 16.7051C27.3945 17.3652 27.3105 17.9668 27.1426 18.5098C26.9785 19.0488 26.7305 19.5137 26.3984 19.9043C26.0664 20.291 25.6504 20.5898 25.1504 20.8008C24.6504 21.0117 24.0645 21.1172 23.3926 21.1172C22.709 21.1172 22.1152 21.0117 21.6113 20.8008C21.1113 20.5898 20.6953 20.2891 20.3633 19.8984C20.0352 19.5078 19.7891 19.041 19.625 18.498C19.4609 17.9551 19.3789 17.3535 19.3789 16.6934C19.3789 15.8105 19.5234 15.041 19.8125 14.3848C20.1055 13.7246 20.5488 13.2129 21.1426 12.8496C21.7402 12.4824 22.4941 12.2988 23.4043 12.2988C24.2949 12.2988 25.0352 12.4805 25.625 12.8438C26.2148 13.207 26.6562 13.7188 26.9492 14.3789C27.2461 15.0352 27.3945 15.8105 27.3945 16.7051ZM20.8555 16.7051C20.8555 17.3652 20.9453 17.9375 21.125 18.4219C21.3047 18.9023 21.5801 19.2734 21.9512 19.5352C22.3262 19.793 22.8066 19.9219 23.3926 19.9219C23.9824 19.9219 24.4629 19.793 24.834 19.5352C25.2051 19.2734 25.4785 18.9023 25.6543 18.4219C25.8301 17.9375 25.918 17.3652 25.918 16.7051C25.918 15.7012 25.7168 14.916 25.3145 14.3496C24.916 13.7793 24.2793 13.4941 23.4043 13.4941C22.8184 13.4941 22.3359 13.623 21.957 13.8809C21.582 14.1387 21.3047 14.5078 21.125 14.9883C20.9453 15.4648 20.8555 16.0371 20.8555 16.7051ZM29.2344 21V12.4336H30.6406V21H29.2344Z" fill="white" fill-opacity="0.5"/>
<path d="M10.8425 52.7921V28.75" stroke="white" stroke-opacity="0.1" stroke-width="2" stroke-linecap="round" stroke-linejoin="round"/>
<path d="M22.6277 52.7921V28.75" stroke="white" stroke-opacity="0.1" stroke-width="2" stroke-linecap="round" stroke-linejoin="round"/>
<path d="M34.4131 52.7921V28.75" stroke="white" stroke-opacity="0.1" stroke-width="2" stroke-linecap="round" stroke-linejoin="round"/>
<path d="M47.1411 52.7921V28.75" stroke="white" stroke-opacity="0.1" stroke-width="2" stroke-linecap="round" stroke-linejoin="round"/>
<path d="M59.8682 52.7921V28.75" stroke="white" stroke-opacity="0.1" stroke-width="2" stroke-linecap="round" stroke-linejoin="round"/>
<path d="M72.5981 52.7921V28.75" stroke="white" stroke-opacity="0.1" stroke-width="2" stroke-linecap="round" stroke-linejoin="round"/>
<path d="M5.65674 44.3125H77.7831" stroke="white" stroke-opacity="0.1" stroke-width="2" stroke-linecap="round" stroke-linejoin="round"/>
<path d="M5.65674 52.4453H77.7831" stroke="white" stroke-opacity="0.1" stroke-width="2" stroke-linecap="round" stroke-linejoin="round"/>
<path d="M5.65674 35.8281H77.7831" stroke="white" stroke-opacity="0.1" stroke-width="2" stroke-linecap="round" stroke-linejoin="round"/>
<defs>
<linearGradient id="paint0_linear_2061_2355" x1="9.0313" y1="-5.756e-07" x2="48.0755" y2="74.6351" gradientUnits="userSpaceOnUse">
<stop stop-color="#0075FF"/>
<stop offset="1" stop-color="#00D1FF"/>
</linearGradient>
</defs>
</svg>
